<svg width="300" height="300" viewBox="0 0 300 300" fill="none" xmlns="http://www.w3.org/2000/svg">
<rect width="300" height="300" rx="90" fill="white"/>
<path d="M133.633 190.375C133.419 185.153 133.245 189.426 133.245 199.871C133.245 210.316 133.419 214.589 133.633 209.366C133.846 204.144 133.846 195.598 133.633 190.375Z" fill="black"/>
<path d="M49.6335 241.806C42.7691 238.081 43.0009 241.395 43.0009 146.984C43.0009 62.1385 43.0418 60.563 45.3029 58.3019C49.3126 54.2922 52.891 55.3587 60.7506 62.9058C64.706 66.704 68.2867 69.8116 68.7077 69.8116C69.1287 69.8116 69.4732 67.7399 69.4732 65.2077C69.4732 59.6919 72.5965 56 77.2628 56C79.776 56 82.9897 58.5498 92.4869 68.0795C101.741 77.3652 105.734 80.5606 109.752 81.8951C118.251 84.7178 126.714 91.2097 132.838 99.6027L138.496 107.358L156.522 108.665C166.436 109.384 175.078 110.502 175.726 111.15C176.374 111.798 177.296 120.437 177.776 130.349C178.256 140.261 179.074 148.726 179.595 149.16C180.115 149.595 183.426 150.821 186.952 151.885C203.371 156.839 216.913 172.518 218.748 188.699C219.421 194.635 219.606 194.872 238.254 213.79C250.085 225.791 257.081 233.753 257.081 235.215C257.081 236.495 256.007 238.907 254.695 240.575L252.31 243.608L152.547 243.562C66.5495 243.522 52.3494 243.28 49.6335 241.806ZM135.651 151.527L52.7842 68.6543L52.4852 150.088C52.2078 225.624 52.328 231.627 54.1439 232.961C55.6663 234.08 74.1545 234.4 137.309 234.4H218.517L135.651 151.527ZM73.6485 219.981C73.2512 218.945 72.9261 195.599 72.9261 168.1V118.103L75.7694 116.807C77.947 115.815 79.0277 115.856 80.385 116.983C81.9407 118.274 82.1207 124.731 81.8578 169.809L81.5583 221.164L77.9646 221.513C75.4711 221.756 74.1497 221.287 73.6485 219.981ZM104.77 220.972C104.347 220.55 104.002 204.08 104.002 184.371C104.002 148.181 104.262 145.775 108.179 145.775C108.956 145.775 110.407 146.589 111.401 147.584C112.966 149.149 113.21 154.09 113.21 184.185C113.21 209.711 112.842 219.345 111.829 220.358C110.34 221.847 106.02 222.222 104.77 220.972ZM135.358 220.408C134.328 219.377 133.927 213.395 133.927 199.04V179.104L136.771 177.809C138.952 176.815 140.03 176.858 141.4 177.995C142.916 179.253 143.138 182.629 142.873 200.321L142.56 221.164L139.674 221.501C138.087 221.686 136.145 221.194 135.358 220.408ZM165.47 220.144C165.134 219.267 165.02 216.289 165.219 213.526C165.523 209.287 165.993 208.444 168.232 208.127C169.691 207.92 171.633 208.372 172.548 209.131C174.561 210.801 174.752 218.436 172.83 220.358C170.947 222.241 166.222 222.104 165.47 220.144ZM244.42 233.555C244.42 232.542 220.017 207.928 219.013 207.928C218.628 207.928 217.681 210.035 216.909 212.611L215.506 217.295L223.345 225.751L231.184 234.207L237.802 234.304C241.442 234.357 244.42 234.02 244.42 233.555ZM209.166 206.489C209.547 205.065 209.867 200.682 209.875 196.749C209.907 182.286 202.054 169.658 188.956 163.113C185.076 161.174 181.248 159.587 180.45 159.587C179.341 159.587 179.144 162.226 179.612 170.809L180.225 182.031L193.602 195.555C200.958 202.993 207.314 209.079 207.725 209.079C208.136 209.079 208.784 207.913 209.166 206.489ZM168.697 140.886C168.145 129.651 167.338 120.103 166.904 119.669C166.03 118.796 115.249 114.74 114.413 115.476C114.126 115.73 126.297 128.357 141.461 143.537L169.032 171.137L169.366 166.225C169.55 163.524 169.249 152.121 168.697 140.886ZM122.833 102.308C119.536 97.8126 110.501 91.9902 103.679 89.9643C97.4891 88.126 87.8887 87.6148 87.8887 89.1235C87.8887 89.6166 91.1521 93.2545 95.1408 97.2077L102.393 104.395L113.269 105.276C119.25 105.76 124.368 105.998 124.643 105.805C124.917 105.612 124.102 104.038 122.833 102.308ZM88.9216 78.37C89.5821 77.7096 80.8929 68.6606 79.5983 68.6606C79.0937 68.6606 78.6809 71.3165 78.6809 74.5626V80.4645L83.5293 79.6892C86.1959 79.2628 88.6225 78.6692 88.9216 78.37Z" fill="black"/>
</svg>
