<svg viewBox="0 0 248 218" xmlns="http://www.w3.org/2000/svg">
    <path d="M7.68451 215.246C-0.267462 210.931 0.00108258 214.771 0.00108258 105.4C0.00108258 7.11111 0.0484617 5.28596 2.66775 2.66666C7.31279 -1.97837 11.4582 -0.742908 20.5631 8C25.1452 12.4 29.2933 16 29.781 16C30.2687 16 30.6677 13.6 30.6677 10.6667C30.6677 4.27692 34.2859 0 39.6916 0C42.603 0 46.3259 2.95385 57.3279 13.9935C68.0482 24.7504 72.6743 28.4522 77.3288 29.9981C87.1737 33.2681 96.9783 40.7886 104.072 50.5114L110.627 59.4954L131.509 61.0095C142.994 61.8423 153.005 63.1377 153.756 63.8881C154.506 64.6385 155.575 74.6472 156.131 86.1296C156.686 97.612 157.635 107.418 158.238 107.921C158.841 108.425 162.676 109.845 166.761 111.077C185.781 116.817 201.468 134.98 203.595 153.725C204.375 160.601 204.588 160.876 226.192 182.791C239.897 196.694 248.001 205.917 248.001 207.611C248.001 209.094 246.758 211.888 245.238 213.82L242.474 217.333L126.904 217.28C27.2808 217.234 10.8308 216.953 7.68451 215.246ZM107.331 110.663L11.3344 14.6594L10.9881 108.996C10.6668 196.501 10.806 203.454 12.9096 205C14.6733 206.296 36.0909 206.667 109.252 206.667H203.327L107.331 110.663ZM35.5046 189.963C35.0443 188.763 34.6677 161.718 34.6677 129.862V71.9428L37.9616 70.442C40.4842 69.2927 41.7361 69.3402 43.3085 70.6452C45.1107 72.1408 45.3192 79.6208 45.0147 131.841L44.6677 191.333L40.5046 191.738C37.6161 192.02 36.0853 191.476 35.5046 189.963ZM71.5566 191.111C71.0677 190.622 70.6677 171.542 70.6677 148.711C70.6677 106.787 70.9693 104 75.5058 104C76.4068 104 78.0868 104.943 79.2392 106.095C81.0515 107.908 81.3344 113.632 81.3344 148.495C81.3344 178.066 80.9083 189.226 79.7344 190.4C78.0097 192.125 73.0054 192.56 71.5566 191.111ZM106.992 190.457C105.798 189.264 105.334 182.334 105.334 165.705V142.609L108.628 141.109C111.156 139.957 112.404 140.008 113.991 141.325C115.747 142.782 116.005 146.693 115.697 167.188L115.334 191.333L111.992 191.724C110.153 191.939 107.903 191.369 106.992 190.457ZM141.875 190.153C141.485 189.136 141.354 185.686 141.584 182.486C141.936 177.575 142.481 176.599 145.074 176.231C146.765 175.991 149.015 176.515 150.074 177.394C152.406 179.329 152.628 188.173 150.401 190.4C148.22 192.581 142.746 192.422 141.875 190.153ZM233.334 205.688C233.334 204.515 205.065 176 203.902 176C203.455 176 202.358 178.442 201.464 181.426L199.839 186.852L208.92 196.648L218.001 206.444L225.668 206.555C229.884 206.617 233.334 206.226 233.334 205.688ZM192.494 174.333C192.936 172.683 193.306 167.606 193.316 163.05C193.353 146.295 184.255 131.666 169.083 124.085C164.587 121.838 160.152 120 159.228 120C157.943 120 157.715 123.057 158.258 133L158.968 146L174.464 161.667C182.986 170.283 190.349 177.333 190.825 177.333C191.301 177.333 192.052 175.983 192.494 174.333ZM145.614 98.3362C144.974 85.321 144.039 74.2604 143.536 73.757C142.524 72.7453 83.6971 68.0467 82.7285 68.9001C82.3952 69.1938 96.4952 83.822 114.062 101.407L146.001 133.38L146.389 127.69C146.602 124.561 146.253 111.351 145.614 98.3362ZM92.4825 53.6448C88.6633 48.4377 78.1966 41.6927 70.2937 39.3458C63.1227 37.2162 52.0011 36.6241 52.0011 38.3719C52.0011 38.943 55.7817 43.1573 60.4023 47.7369L68.8036 56.0635L81.4023 57.0832C88.3316 57.6441 94.2609 57.9199 94.5785 57.6963C94.896 57.4727 93.9528 55.6495 92.4825 53.6448ZM53.1977 25.9145C53.9628 25.1494 43.8969 14.6667 42.3972 14.6667C41.8126 14.6667 41.3344 17.7434 41.3344 21.5037V28.3408L46.951 27.4427C50.0402 26.9487 52.8512 26.261 53.1977 25.9145Z"/>
</svg>
