<svg width="153" height="217" viewBox="0 0 153 217" fill="none" xmlns="http://www.w3.org/2000/svg">
    <path d="M16.9156 216.217C15.8522 215.8 14.372 215.008 13.6262 214.456C11.8464 213.14 9.48792 209.617 8.92187 207.431C8.54342 205.969 0 64.9417 0 60.1566C0 58.9356 0.308423 58.2485 1.3033 57.2529L2.60661 55.9487H36.3769H70.1471L70.9091 43.7629C71.3281 37.0607 71.8897 31.1175 72.157 30.5556C72.4242 29.9938 73.1194 29.1848 73.7018 28.758C75.4586 27.4703 142.207 0 143.579 0C145.825 0 147.115 1.76219 149.916 8.65415C151.33 12.1318 152.486 15.5027 152.486 16.145C152.486 18.8967 152.193 19.0444 121.403 31.7997L92.3964 43.8159L92.1423 47.0213C92.0025 48.7843 91.7796 51.5142 91.647 53.0877L91.4059 55.9487H103.7H115.994L117.297 57.2529C118.35 58.3064 118.601 58.9088 118.601 60.3865C118.601 61.3927 116.695 94.5347 114.365 134.035C111.508 182.491 109.94 206.486 109.547 207.795C108.811 210.242 106.651 213.276 104.668 214.649C101.11 217.112 103 217.015 59.1412 216.994C21.4883 216.975 18.7224 216.924 16.9156 216.217ZM98.8839 207.936C100.828 207.124 101.354 205.967 101.633 201.895L101.87 198.432L94.8806 198.292C88.9548 198.173 87.7176 198.034 86.7481 197.375C84.0643 195.553 84.4648 191.327 87.4391 190.083C88.5327 189.626 90.7102 189.463 95.714 189.463C101.482 189.463 102.505 189.366 102.505 188.824C102.505 187.424 107.574 100.893 107.815 98.1703L108.074 95.2514L105.183 95.5327C100.994 95.9402 88.6171 95.1628 69.0444 93.2625C59.6083 92.3464 48.1709 91.3017 43.6281 90.941C34.6743 90.23 19.6801 90.0085 14.0838 90.5045L10.5893 90.8142V92.5438C10.5893 98.6088 17.0046 203.925 17.4613 205.357C18.5363 208.729 15.9899 208.535 59.208 208.536C91.2264 208.536 97.6826 208.439 98.8839 207.936ZM76.0491 198.023C73.338 197.437 71.9614 194.799 73.0303 192.239C74.3884 188.987 78.7993 188.814 80.6251 191.943C81.3263 193.144 81.3732 193.568 80.9581 194.954C80.6924 195.842 80.2085 196.789 79.8827 197.06C79.0711 197.734 77.054 198.241 76.0491 198.023ZM43.6069 190.477C39.3087 188.004 33.2468 184.524 30.136 182.742C27.0252 180.96 24.0308 179.089 23.4818 178.585C22.2309 177.435 21.7673 175.669 22.3269 174.185C23.1912 171.894 37.8079 146.837 38.8202 145.912C40.9749 143.942 41.8836 144.29 56.3606 152.633C63.6851 156.854 70.1832 160.782 70.8008 161.361C72.1831 162.658 72.5281 164.25 71.8028 165.987C70.525 169.047 56.1748 193.342 55.1848 194.122C53.2111 195.675 51.9551 195.28 43.6069 190.477ZM56.7701 175.131C59.7069 170.019 61.7955 165.945 61.5825 165.746C61.102 165.296 44.4447 155.676 43.6149 155.369C43.1616 155.202 41.5292 157.695 37.6019 164.554C32.9833 172.621 32.3102 174.025 32.9024 174.356C33.2826 174.569 37.513 177.003 42.3033 179.765C47.0936 182.526 51.1409 184.646 51.2973 184.475C51.4536 184.304 53.9164 180.1 56.7701 175.131ZM65.0603 148.667C64.0534 147.765 52.1783 127.593 50.996 124.777C50.1693 122.807 50.882 120.74 52.8458 119.412C56.8217 116.721 76.1046 105.964 76.9506 105.964C78.6378 105.964 80.028 106.905 81.2736 108.892C81.9445 109.962 85.1279 115.41 88.348 120.998C94.4828 131.645 94.899 132.765 93.5106 134.885C93.1009 135.511 87.9857 138.733 80.9761 142.781C68.1416 150.194 67.1667 150.554 65.0603 148.667ZM76.8491 135.209C80.7015 132.995 83.8566 131.042 83.8605 130.869C83.8653 130.647 76.2933 117.196 75.6376 116.262C75.5407 116.124 61.7644 124.097 61.3047 124.557C60.8643 124.998 68.9705 139.549 69.5423 139.344C69.7087 139.285 72.9968 137.424 76.8491 135.209ZM108.447 86.3603C108.453 86.0689 108.734 81.5389 109.07 76.2937C109.407 71.0485 109.687 66.2325 109.694 65.5914L109.705 64.4258H100.406H91.1062L90.8919 65.8034C90.7741 66.561 90.4758 70.7095 90.2292 75.0222C89.9826 79.3349 89.679 83.6643 89.5545 84.643L89.3282 86.4226L91.7864 86.5762C93.1384 86.6607 97.4373 86.7659 101.339 86.81C106.77 86.8714 108.438 86.7659 108.447 86.3603ZM80.9087 84.8768C80.9119 84.4688 81.1952 80.225 81.5379 75.446C82.4088 63.3001 82.5386 64.4258 80.2672 64.4258C79.2189 64.4258 78.3393 64.4735 78.3127 64.5318C78.2862 64.5901 77.943 69.2154 77.5503 74.8103C77.0548 81.867 76.9723 85.0781 77.2809 85.2941C77.5256 85.4654 78.4405 85.6085 79.3141 85.612C80.5447 85.6168 80.9039 85.4514 80.9087 84.8768ZM68.2013 83.8172C68.2045 83.5258 68.489 79.4727 68.8333 74.8103C69.1776 70.1479 69.4609 65.904 69.4627 65.3795L69.4659 64.4258H39.1806C10.6216 64.4258 8.89475 64.4681 8.88989 65.1676C8.88701 65.5755 9.10947 69.5828 9.38413 74.0725L9.88352 82.2358L13.3073 81.9138C22.3822 81.0606 43.1229 81.8486 59.9357 83.6855C66.814 84.4369 68.1941 84.4589 68.2013 83.8172ZM83.3937 47.8222C83.9278 39.516 84.0602 38.8513 85.4167 37.6691C85.846 37.295 98.7774 31.7885 114.153 25.4324C129.529 19.0764 142.179 13.8145 142.266 13.7394C142.539 13.5014 141.957 11.688 141.335 10.8362C140.759 10.0483 139.57 10.499 110.713 22.4454C94.2008 29.2813 80.5675 34.9907 80.4169 35.133C80.2663 35.2754 79.9319 38.6343 79.6737 42.5973C79.4156 46.5604 79.0875 51.1857 78.9447 52.8758L78.6852 55.9487H80.7782H82.8712L83.3937 47.8222Z"
          fill="#B9B9B9"/>
    <path d="M16.7144 216.147C13.2037 214.795 9.99963 211.119 8.85651 207.13C8.66445 206.46 6.57266 173.022 4.20806 132.824C0.624508 71.9031 -0.00317819 59.5229 0.437645 58.458C1.51585 55.8532 0.132774 55.9487 36.7725 55.9487H70.1985L70.5052 50.5446C70.674 47.5723 71.0563 41.8317 71.3549 37.7876C71.862 30.9184 71.9659 30.3666 72.9335 29.3983C74.1786 28.1523 141.781 0 143.528 0C145.005 0 146.385 0.981267 147.243 2.64173C148.883 5.81521 152.487 15.1033 152.487 16.1566C152.487 18.8527 152.147 19.023 121.435 31.7461L92.409 43.7707L92.1772 46.151C92.0498 47.4602 91.8263 50.2002 91.6806 52.24L91.4159 55.9487H103.335C116.453 55.9487 117.175 56.0708 118.163 58.458C118.604 59.5229 117.976 71.9031 114.393 132.824C112.028 173.022 109.936 206.46 109.744 207.13C108.582 211.185 105.376 214.816 101.766 216.168C99.5667 216.991 98.4606 217.013 59.1785 216.991C20.3148 216.97 18.7715 216.939 16.7144 216.147ZM99.1162 207.997C100.623 207.247 101.542 204.985 101.768 201.471L101.963 198.433L94.9274 198.293C87.1486 198.137 86.4848 197.942 85.3092 195.463C84.7205 194.221 84.7082 193.838 85.214 192.492C86.1984 189.872 87.5996 189.464 95.6218 189.464C99.5153 189.463 102.505 189.294 102.505 189.074C102.505 188.111 107.581 101.97 107.824 98.8026L108.098 95.2443L105.195 95.4804C100.584 95.8556 88.338 95.097 69.4217 93.2644C59.7781 92.3301 48.1709 91.2582 43.6281 90.8824C34.9298 90.1629 16.7338 89.9816 12.7154 90.5743L10.3938 90.9168L10.4903 92.6122C10.5433 93.5447 12.0299 119.103 13.7937 149.409C17.2485 208.766 17.0564 206.789 19.4844 207.997C21.0259 208.764 97.5747 208.764 99.1162 207.997ZM75.9582 198.034C74.7059 197.837 73.0001 196.053 72.7184 194.645C72.5845 193.976 72.7877 192.868 73.2004 192.014C74.7572 188.794 79.3456 188.931 80.7269 192.239C82.0688 195.453 79.4881 198.589 75.9582 198.034ZM38.5292 187.531C31.4326 183.438 25.0107 179.671 24.2583 179.16C22.4655 177.942 21.7702 176.27 22.3163 174.489C22.8787 172.655 37.6403 147.112 38.831 145.912C40.8279 143.9 41.8459 144.291 56.3408 152.643C63.6762 156.87 70.1109 160.722 70.6402 161.203C71.8469 162.299 72.421 164.338 71.9135 165.724C71.0645 168.043 56.5862 192.718 55.4356 193.807C53.2331 195.892 52.6509 195.676 38.5292 187.531ZM56.6952 175.301C61.6326 166.717 61.9596 166.014 61.2522 165.496C59.7538 164.4 43.1855 155.009 43.0411 155.174C42.1863 156.152 32.2338 174.012 32.4868 174.114C32.6739 174.19 36.8298 176.605 41.722 179.482C46.6143 182.358 50.7878 184.675 50.9966 184.63C51.2053 184.584 53.7697 180.386 56.6952 175.301ZM65.3629 148.987C63.9055 147.966 50.6954 124.772 50.737 123.307C50.7976 121.176 51.2282 120.478 53.2827 119.179C57.4397 116.551 74.705 106.713 75.8785 106.303C77.4334 105.761 78.9401 106.135 80.064 107.342C80.5476 107.861 83.8885 113.385 87.4883 119.616C94.6567 132.024 95.0703 133.188 93.0803 135.35C92.5562 135.919 86.9433 139.363 80.6074 143.003C68.6 149.901 67.3601 150.387 65.3629 148.987ZM76.6866 135.315C80.6341 133.043 83.8647 131.027 83.8657 130.836C83.867 130.577 76.0815 116.773 75.6408 116.254C75.5184 116.11 61.8437 124.018 61.334 124.528C61.019 124.843 62.1189 127.125 65.0382 132.212C67.3219 136.192 69.2621 139.448 69.3498 139.448C69.4376 139.448 72.739 137.588 76.6866 135.315ZM108.447 86.7841C108.577 85.6054 109.686 67.1448 109.694 66.0153L109.705 64.4258H100.395H91.084L90.8914 65.3795C90.7856 65.904 90.489 69.8618 90.2324 74.1745C89.9758 78.4872 89.657 83.0058 89.524 84.2159L89.2822 86.4161L91.3398 86.5767C93.729 86.7632 108.429 86.9415 108.447 86.7841ZM80.9087 85.0887C80.9119 84.7973 81.1953 80.6489 81.5379 75.8699C81.8806 71.0909 82.1637 66.5505 82.1671 65.7801L82.1735 64.3794L80.1616 64.5086L78.1496 64.6377L77.472 74.8103C77.0993 80.4051 76.8723 85.1258 76.9675 85.3007C77.2732 85.8619 80.902 85.6668 80.9087 85.0887ZM68.2015 84.241C68.2047 84.1827 68.4881 80.225 68.8307 75.446C69.1734 70.6671 69.4565 66.2325 69.4599 65.5914L69.4663 64.4258H39.1203H8.77451L9.05526 69.1942C9.20969 71.8168 9.455 75.827 9.60041 78.1057L9.86479 82.2489L13.7216 81.9204C23.2661 81.1075 42.8114 81.8608 59.5121 83.6855C64.4088 84.2204 68.1887 84.4621 68.2015 84.241ZM83.4016 48.0661C83.6867 43.7306 84.0903 39.7351 84.2985 39.1873C84.5066 38.6394 85.1427 37.8858 85.7119 37.5126C86.2811 37.1394 99.2033 31.6732 114.428 25.3655C129.652 19.0578 142.194 13.8163 142.298 13.7177C142.608 13.4236 141.179 9.95423 140.781 10.0351C140.066 10.1807 80.6861 34.8524 80.4078 35.1198C80.1895 35.3297 78.7847 52.9031 78.7847 55.4241C78.7847 55.7688 79.4877 55.9487 80.834 55.9487H82.8832L83.4016 48.0661Z"
          fill="#A3A3A3"/>
    <path d="M17.4605 216.395C13.3192 215.091 10.0181 211.383 8.91159 206.792C8.66525 205.77 6.54827 172.241 4.2072 132.284C0.943473 76.5787 0.0594479 59.3716 0.416892 58.508C0.673287 57.8887 1.42856 57.0594 2.09529 56.6653C3.20604 56.0087 6.11197 55.9488 36.8104 55.9488C68.4386 55.9488 70.3128 55.9073 70.305 55.207C70.2629 51.4087 71.8166 31.7093 72.2414 30.6564C72.5398 29.9169 73.2287 29.0265 73.7723 28.6776C74.316 28.3287 89.8188 21.794 108.223 14.156C144.374 -0.847278 144.432 -0.866749 146.299 1.30577C147.469 2.66624 152.487 14.8142 152.487 16.285C152.487 18.8329 151.606 19.2719 121.777 31.601C106.169 38.0525 93.1756 43.4187 92.9039 43.5258C92.3591 43.7405 92.084 45.606 91.681 51.8162L91.4128 55.9488H103.353C116.461 55.9488 117.176 56.0733 118.195 58.5347C118.567 59.4338 117.728 75.7164 114.384 132.522C112.026 172.582 109.894 206.119 109.645 207.05C108.606 210.947 106.048 214.114 102.547 215.841L100.599 216.801L59.9357 216.883C26.8629 216.95 18.9343 216.859 17.4605 216.395ZM99.1162 207.997C100.676 207.221 101.567 204.948 101.728 201.331L101.869 198.152L94.6108 198.036C87.5037 197.923 87.33 197.898 86.2926 196.86C84.5395 195.106 84.5135 192.747 86.2284 191.031C87.6105 189.648 88.7823 189.463 96.1661 189.463H102.429L102.695 185.966C102.885 183.462 108.011 96.2561 108.011 95.5227C108.011 95.4727 104.787 95.4233 100.845 95.4129C92.7851 95.3916 88.6731 95.0975 67.5573 93.0321C42.8387 90.6142 36.0152 90.1558 25.2026 90.1866C19.6114 90.2026 13.9885 90.3737 12.7072 90.567L10.3775 90.9184L10.4929 93.0368C10.5564 94.202 12.0416 119.76 13.7934 149.832C17.2301 208.829 17.0291 206.775 19.4844 207.997C21.0259 208.764 97.5747 208.764 99.1162 207.997ZM74.0188 196.87C72.2542 195.104 72.2262 192.75 73.9491 191.026C75.2326 189.742 76.5504 189.457 78.4169 190.061C80.1316 190.616 81.5135 193.018 81.0897 194.708C80.3098 197.818 76.2164 199.069 74.0188 196.87ZM37.9098 187.14C30.3709 182.787 23.8181 178.718 23.1447 177.972C22.1572 176.878 21.9767 176.366 22.1663 175.198C22.2941 174.41 25.984 167.552 30.366 159.958C38.613 145.667 39.1517 144.958 41.7726 144.958C43.1963 144.958 69.1624 159.774 70.8427 161.546C73.0289 163.85 72.8076 164.451 64.3286 179.244C60.1052 186.613 56.0994 193.166 55.4269 193.807C53.2424 195.89 52.7077 195.686 37.9098 187.14ZM56.7713 175.243C59.7379 170.126 62.14 165.914 62.1093 165.884C61.8086 165.59 43.4741 155.131 43.2588 155.131C43.1004 155.131 40.5346 159.361 37.5571 164.531C33.5334 171.518 32.2857 174.016 32.6971 174.261C41.1995 179.314 50.7071 184.704 50.9973 184.636C51.2064 184.587 53.8047 180.36 56.7713 175.243ZM65.1339 148.713C64.5297 148.163 61.0639 142.526 57.4321 136.185C50.0806 123.351 49.7527 122.392 51.9937 120.286C53.7432 118.642 75.2482 106.358 76.8259 106.102C78.5781 105.817 80.3285 107.217 82.0935 110.315C82.7886 111.535 85.7595 116.709 88.6954 121.814C94.3775 131.692 94.9061 133.226 93.2921 135.152C92.8844 135.639 87.4044 139.019 81.1144 142.663C68.5226 149.959 67.0955 150.499 65.1339 148.713ZM76.7281 135.324C80.6548 133.056 83.8676 131.023 83.8676 130.806C83.8676 130.496 76.0619 116.686 75.6328 116.237C75.5744 116.175 72.1818 118.052 68.0937 120.407L60.6608 124.688L64.9117 132.068C67.2497 136.127 69.2585 139.448 69.3757 139.448C69.4929 139.448 72.8015 137.592 76.7281 135.324ZM108.607 84.6649C108.886 81.9919 109.706 68.0072 109.706 65.9109V64.4258H100.254H90.8019L90.2878 73.0089C90.005 77.7296 89.6605 82.6758 89.5224 84.0004L89.2711 86.4089L90.911 86.5783C91.8129 86.6713 96.111 86.7797 100.462 86.8189L108.374 86.8901L108.607 84.6649ZM80.9087 85.3007C80.9119 85.1258 81.1952 81.0727 81.5379 76.2937C81.8806 71.5148 82.1637 66.8895 82.1671 66.0153L82.1735 64.4258H80.1341H78.0946L77.4238 74.7043C77.0549 80.3575 76.8402 85.1258 76.9468 85.3007C77.0535 85.4755 77.9871 85.6185 79.0217 85.6185C80.0563 85.6185 80.9053 85.4755 80.9087 85.3007ZM68.37 82.1217C68.6703 79.2866 69.4661 67.3548 69.4661 65.6887V64.4258H39.1206H8.77505L9.0591 69.6181C9.21533 72.4738 9.46061 76.4834 9.60416 78.5284L9.86517 82.2465L14.3571 81.9192C24.6152 81.1718 42.5695 81.8808 59.0885 83.6855C61.8841 83.9909 65.0631 84.2647 66.1529 84.2939L68.1344 84.3469L68.37 82.1217ZM83.0191 54.7831C83.0183 54.1421 83.2319 50.5658 83.4937 46.8359C84.0046 39.555 84.4246 38.1097 86.3103 37.1452C86.947 36.8196 99.095 31.7437 113.306 25.8654C127.517 19.9872 139.95 14.8269 140.936 14.3981L142.728 13.6184L141.896 11.7895C141.438 10.7836 140.852 10.0144 140.592 10.0803C139.633 10.3238 80.6803 34.8377 80.4002 35.1097C80.1635 35.3395 78.7847 52.471 78.7847 55.1824C78.7847 55.8194 79.142 55.9488 80.9026 55.9488C82.9309 55.9488 83.0204 55.8995 83.0191 54.7831Z"
          fill="#8C8C8C"/>
    <path d="M17.8408 216.529C15.9954 215.992 14.5818 215.108 12.5655 213.229C10.6344 211.429 9.46945 209.305 8.89513 206.537C8.20244 203.198 -0.0653407 59.9899 0.368966 58.8533C0.57852 58.3048 1.17301 57.4746 1.69006 57.0084C2.61132 56.1777 3.30812 56.1584 36.4717 56.0473L70.3132 55.9339L70.3309 54.5638C70.3405 53.8102 70.6966 48.1708 71.1219 42.0318C71.7955 32.3118 72.0037 30.7239 72.7343 29.74C73.4036 28.8385 79.6003 26.1075 103.394 16.2276C119.795 9.41723 135.434 2.95435 138.147 1.86565C145.491 -1.08083 145.857 -0.866772 149.795 8.68036C152.237 14.6018 152.542 15.6359 152.22 16.9049C152.017 17.7032 151.367 18.7158 150.775 19.155C150.184 19.5942 137.508 25.0013 122.608 31.1709C107.707 37.3404 94.8108 42.6983 93.9491 43.0772C92.1126 43.8848 92.0736 44.0206 91.6873 50.9499L91.4106 55.9117L103.691 56.0362C115.281 56.1537 116.024 56.2084 116.911 57.0084C117.428 57.4746 118.022 58.3048 118.232 58.8533C118.666 59.9899 110.398 203.198 109.705 206.537C108.867 210.578 106.357 213.811 102.505 215.812L100.599 216.801L59.9356 216.873C34.3508 216.919 18.7417 216.791 17.8408 216.529ZM100.119 207.317C101.296 206.211 101.481 205.551 101.89 201.013L102.167 197.94H94.791H87.4147L86.2497 196.723C84.9656 195.382 84.6763 193.45 85.5227 191.867C86.5776 189.895 87.4524 189.683 95.1653 189.534L102.439 189.394L102.695 186.355C102.932 183.551 108.011 97.2406 108.011 96.0253C108.011 95.6088 105.657 95.4307 97.7396 95.2481C90.3134 95.0769 82.6688 94.5315 70.1433 93.2793C38.8746 90.1533 26.7555 89.468 16.7385 90.2594C13.2481 90.5351 10.361 90.7958 10.3229 90.8387C10.1764 91.0034 16.9059 203.731 17.1363 204.972C17.3757 206.261 18.6622 207.778 19.908 208.24C20.2575 208.37 38.207 208.442 59.7958 208.4L99.0482 208.324L100.119 207.317ZM73.9929 196.751C72.4162 195.104 72.4067 192.57 73.9714 191.004C76.9066 188.067 81.7745 190.74 80.988 194.857C80.4121 197.871 76.1664 199.021 73.9929 196.751ZM37.9111 187.112C30.4569 182.801 23.8852 178.8 23.3075 178.222C21.2293 176.143 21.5724 175.221 29.614 161.277C33.6471 154.283 37.3542 147.945 37.852 147.192C38.9322 145.558 40.6346 144.762 42.3234 145.1C44.031 145.441 69.8814 160.405 71.0545 161.73C72.954 163.877 72.6382 164.687 64.1605 179.425C59.8446 186.927 55.8312 193.495 55.2418 194.019C53.2209 195.818 52.3995 195.49 37.9111 187.112ZM56.8212 175.229C59.7698 170.119 62.1533 165.908 62.1179 165.87C61.822 165.552 43.5505 155.131 43.289 155.131C42.9048 155.131 32.044 173.774 32.2867 174.017C32.9276 174.658 50.709 184.728 51.0386 184.636C51.2705 184.572 53.8727 180.339 56.8212 175.229ZM65.6486 149.007C64.9402 148.621 62.3376 144.552 57.8656 136.838C50.2857 123.763 49.8892 122.667 51.9454 120.473C52.6126 119.761 58.2096 116.264 64.3832 112.702C76.6543 105.623 77.7225 105.241 79.8003 107.194C80.3851 107.744 82.1857 110.505 83.8015 113.331C85.4173 116.156 88.3805 121.318 90.3863 124.803C94.2851 131.575 94.7909 133.375 93.2921 135.142C92.6814 135.862 74.7646 146.468 70.0166 148.92C68.3892 149.761 67.0806 149.787 65.6486 149.007ZM73.0753 137.486C74.9342 136.406 78.2038 134.501 80.3411 133.252L84.2271 130.981L80.0094 123.686C77.6896 119.673 75.7245 116.323 75.6424 116.241C75.5602 116.159 72.1287 118.032 68.0166 120.403C60.8189 124.554 60.5616 124.748 61.1163 125.618C61.4331 126.114 63.3649 129.429 65.409 132.984C67.4531 136.539 69.2539 139.448 69.4106 139.448C69.5673 139.448 71.2165 138.565 73.0753 137.486ZM108.412 86.6242C108.628 86.4151 109.649 70.546 109.683 66.863L109.706 64.4258H100.256H90.8063L90.0909 75.3055C89.6975 81.2893 89.4718 86.2815 89.5895 86.3993C90.1748 86.9849 107.822 87.1958 108.412 86.6242ZM81.0861 82.9695C81.5262 78.3236 82.1698 68.5227 82.1716 66.4391L82.1732 64.4258H80.1222H78.0712L77.5648 72.585C77.2863 77.0726 76.9457 81.8409 76.8078 83.1814L76.5573 85.6185H78.6962H80.835L81.0861 82.9695ZM68.2169 84.241C68.3563 83.5534 69.4385 67.9339 69.4503 66.4391L69.4663 64.4258H39.119H8.77188L9.05563 70.2538C9.2117 73.4592 9.45718 77.4742 9.60116 79.1759L9.86291 82.27L13.9324 81.931C23.476 81.1359 41.9663 81.8611 58.665 83.6855C63.4243 84.2054 68.1681 84.4813 68.2169 84.241ZM83.0205 55.1097C83.0205 52.175 83.9583 41.0529 84.3169 39.7346C84.555 38.8595 85.1708 37.8724 85.6853 37.541C86.1998 37.2097 99.1007 31.77 114.354 25.4527C129.607 19.1355 142.213 13.8284 142.367 13.6591C142.521 13.4899 142.299 12.5495 141.874 11.5693L141.101 9.78724L138.64 10.7897C125.303 16.2218 80.6223 34.8692 80.3911 35.0996C80.1189 35.3709 78.7847 51.6241 78.7847 54.669C78.7847 55.9221 78.8288 55.9487 80.9026 55.9487C82.7308 55.9487 83.0205 55.834 83.0205 55.1097Z"
          fill="#767676"/>
    <path d="M18.0019 216.425C12.7064 214.735 9.34956 210.745 8.69231 205.357C8.00258 199.704 0.0686534 59.6385 0.390446 58.7966C0.588169 58.2793 1.17299 57.4746 1.69004 57.0084C2.6113 56.1776 3.30808 56.1584 36.4717 56.0473L70.3132 55.9339L70.3228 54.9876C70.3276 54.4672 70.6927 48.8158 71.1339 42.4289C71.8225 32.461 72.0505 30.6631 72.7432 29.7346C73.3699 28.8948 80.9319 25.5895 106.559 14.9539C124.714 7.41946 140.404 0.966173 141.425 0.613262C143.627 -0.147808 145.697 0.330176 146.677 1.82593C147.428 2.97375 151.919 13.7712 152.289 15.319C152.616 16.6891 151.585 18.8446 150.259 19.5611C149.737 19.8431 136.559 25.3599 120.973 31.8206C105.387 38.2813 92.4964 43.8259 92.3265 44.1419C92.1566 44.458 91.8827 47.2355 91.7178 50.3141L91.4179 55.9117L103.695 56.0362C115.282 56.1537 116.025 56.2084 116.912 57.0084C117.429 57.4746 118.018 58.2927 118.222 58.8262C118.561 59.713 110.564 200.636 109.895 205.569C109.294 210.001 106.339 214.01 102.336 215.823L100.176 216.801L59.9364 216.883C28.3059 216.948 19.3337 216.849 18.0019 216.425ZM99.9848 207.369C101.099 206.373 101.346 205.767 101.672 203.236C101.882 201.605 102.06 199.747 102.067 199.105L102.082 197.94H94.9136C87.8198 197.94 87.7318 197.929 86.4421 196.843C84.6716 195.352 84.5861 192.675 86.2556 191.004L87.3723 189.887H94.9051H102.438L102.686 187.238C102.918 184.754 108.013 97.6462 108.012 96.1684C108.012 95.5671 106.818 95.4578 97.952 95.2475C90.8223 95.0785 82.8458 94.5048 70.5674 93.2781C39.028 90.1272 26.2061 89.4097 16.325 90.243C13.0728 90.5173 10.3734 90.7811 10.3265 90.8292C10.136 91.0245 16.907 204.216 17.1725 205.275C17.3304 205.904 18.0252 206.896 18.7166 207.478L19.9735 208.536H59.3267H98.6799L99.9848 207.369ZM74.0928 196.701C71.4201 194.026 73.1125 189.887 76.8786 189.887C80.7559 189.887 82.4385 194.141 79.6028 196.774C77.8582 198.395 75.7574 198.367 74.0928 196.701ZM51.2781 194.685C49.2434 193.817 24.1756 179.067 23.3493 178.251C21.2307 176.159 21.5744 175.25 30.0097 160.641C34.2496 153.297 38.3128 146.743 39.0391 146.076C40.1263 145.077 40.6297 144.9 41.888 145.074C43.7349 145.329 69.6271 160.153 71.1008 161.799C72.9235 163.835 72.4219 165.095 63.9728 179.714C59.7287 187.057 55.9291 193.405 55.5292 193.821C54.759 194.621 52.3003 195.121 51.2781 194.685ZM55.6213 177.353C57.9077 173.406 60.3361 169.204 61.0178 168.014L62.2572 165.85L52.9541 160.49C47.8375 157.542 43.4815 155.131 43.2741 155.131C42.8015 155.131 32.0466 173.776 32.3463 174.076C33.0234 174.754 50.6876 184.738 51.0406 184.642C51.2736 184.579 53.3349 181.299 55.6213 177.353ZM65.7417 149.095C64.7441 148.614 63.6574 146.869 55.5414 132.71C50.2963 123.56 50.0004 122.535 51.9937 120.428C52.6343 119.751 58.2096 116.282 64.3832 112.719C76.7021 105.611 77.8226 105.218 79.8634 107.288C81.551 109 94.0334 131.051 94.0334 132.32C94.0334 133.882 93.318 135.344 92.203 136.061C86.6811 139.612 68.6316 149.614 67.7849 149.592C67.1953 149.576 66.2758 149.353 65.7417 149.095ZM76.8786 135.332C80.3731 133.328 83.456 131.515 83.7295 131.304C84.0875 131.028 83.0898 128.94 80.1663 123.846C77.9331 119.955 75.966 116.611 75.7952 116.413C75.6243 116.216 72.1255 118 68.02 120.377L60.5555 124.7L61.3554 126.034C61.7953 126.768 63.7263 130.098 65.6464 133.435C68.3797 138.185 69.2882 139.445 69.8313 139.239C70.2129 139.095 73.3841 137.337 76.8786 135.332ZM108.4 86.6426C108.536 86.5067 108.933 81.4523 109.282 75.4104L109.917 64.4251L100.354 64.4255L90.7913 64.4258L90.0519 75.274C89.6453 81.2405 89.4304 86.24 89.5743 86.3841C90.3079 87.1181 107.686 87.3568 108.4 86.6426ZM81.6988 75.0471L82.4036 64.4258H80.1706H77.9376L77.9312 65.8033C77.9279 66.561 77.6446 71.0909 77.3019 75.8699C76.9593 80.6488 76.6761 84.7868 76.6728 85.0655C76.668 85.4809 80.2464 86.0679 80.8421 85.7494C80.9255 85.7049 81.3111 80.8888 81.6988 75.0471ZM68.8825 76.8156C69.1741 72.6821 69.4247 68.2034 69.4394 66.863L69.4661 64.4258H39.0705H8.67499L9.20581 73.1827C9.49776 77.9989 9.80957 82.0125 9.89873 82.1017C9.98789 82.191 13.4299 82.0471 17.5476 81.7821C27.2117 81.16 39.7026 81.7933 62.6889 84.0714C65.601 84.3599 68.0666 84.5364 68.168 84.4636C68.2693 84.3907 68.5909 80.9492 68.8825 76.8156ZM83.0419 54.7831C83.0531 54.142 83.3012 50.4479 83.5919 46.5738C83.9677 41.5672 84.3158 39.232 84.7955 38.4994C85.3215 37.6961 91.7659 34.8638 114.001 25.6636C129.694 19.1708 142.585 13.8191 142.649 13.7709C142.713 13.7227 142.384 12.7934 141.919 11.7058L141.071 9.7283L139.684 10.305C138.921 10.6222 125.24 16.286 109.282 22.8914C93.3239 29.4967 80.2198 34.9318 80.1618 34.9693C80.0205 35.0608 78.7984 52.3436 78.7908 54.3593L78.7844 55.9487H80.9022C82.9251 55.9487 83.0214 55.8964 83.0419 54.7831Z"
          fill="#606060"/>
    <path d="M18.5248 216.557C13.27 215.301 9.44301 210.917 8.72975 205.336C8.41354 202.862 0.429438 67.1004 0.300168 61.9996C0.216553 58.7001 0.274579 58.4509 1.38612 57.3372L2.56043 56.1607L36.4368 56.0449C68.1961 55.9363 70.3138 55.8834 70.3217 55.1972C70.3265 54.7946 70.698 49.1535 71.1475 42.6614C72.034 29.8595 72.1322 29.4538 74.6232 28.2919C77.6305 26.8893 140.915 0.732111 142.194 0.362808C143.166 0.0823639 143.956 0.141171 144.983 0.570326C146.594 1.2438 147.035 2.04447 150.428 10.4507C152.381 15.2869 152.508 15.8154 152.055 17.189C151.785 18.0088 151.152 18.9489 150.649 19.2781C150.145 19.6073 136.963 25.1568 121.354 31.6103C105.745 38.0638 92.7555 43.5575 92.4878 43.8184C92.2006 44.0983 91.8796 46.6713 91.7045 50.0966L91.4077 55.9005L103.724 56.0306L116.041 56.1607L117.215 57.3373C118.326 58.4508 118.384 58.7006 118.301 61.9996C118.171 67.1004 110.187 202.862 109.871 205.336C109.286 209.914 106.363 214.002 102.389 215.8L100.175 216.801L60.1475 216.87C37.6345 216.909 19.4219 216.772 18.5248 216.557ZM100.024 207.334C101.422 206.084 101.977 204.004 102.05 199.741L102.081 197.94H94.8479H87.6146L86.3764 196.701C84.6691 194.992 84.6483 192.634 86.3263 191.026L87.5143 189.887H94.9791H102.444L102.684 187.661C102.94 185.28 108.016 98.4883 108.013 96.5328L108.011 95.3672L101.552 95.3663C93.8811 95.3651 88.554 94.9867 68.8308 93.0423C38.8337 90.0849 25.1172 89.3605 15.6973 90.236C12.7989 90.5054 10.3735 90.7798 10.3076 90.8458C9.99074 91.1628 16.9686 205.249 17.3483 205.959C17.5884 206.408 18.2883 207.172 18.9036 207.656C20.018 208.533 20.1744 208.536 59.3509 208.536H98.6794L100.024 207.334ZM74.0928 196.701C71.4574 194.064 73.1783 189.887 76.9001 189.887C79.3794 189.887 80.9026 191.427 80.9026 193.933C80.9026 197.568 76.6761 199.286 74.0928 196.701ZM50.2409 194.096C45.4127 191.507 24.2465 179.105 23.6107 178.493C22.3114 177.242 22.025 175.356 22.855 173.514C24.6092 169.623 37.8539 147.18 39.0476 146.076C40.1332 145.072 40.6235 144.9 41.888 145.081C43.6794 145.338 69.5984 160.159 71.0545 161.76C71.6362 162.399 72.0075 163.349 72.0075 164.197C72.0075 165.551 71.4365 166.604 58.7013 188.732C55.0385 195.096 53.694 195.948 50.2409 194.096ZM55.4882 177.72C57.7014 173.84 60.1295 169.578 60.8842 168.248L62.2563 165.83L52.9866 160.48C47.8882 157.538 43.5238 155.131 43.2878 155.131C42.7212 155.131 32.009 173.739 32.3686 174.099C32.9224 174.653 50.6283 184.778 51.0407 184.776C51.2736 184.776 53.275 181.6 55.4882 177.72ZM65.6539 149.006C65.0087 148.653 63.3299 146.217 61.3571 142.771C59.5763 139.661 56.4789 134.266 54.4741 130.781C50.2188 123.386 49.9926 122.302 52.2687 120.213C53.0605 119.486 58.6874 116.049 64.7727 112.575C76.4736 105.895 77.4438 105.536 79.548 107.109C80.1174 107.534 83.6061 113.125 87.3005 119.532C94.6638 132.303 94.9044 132.98 92.8685 135.188C91.3002 136.889 69.1304 149.622 67.7718 149.602C67.1894 149.594 66.2364 149.325 65.6539 149.006ZM76.5229 135.58C80.213 133.452 83.454 131.497 83.7251 131.235C84.0966 130.876 83.2043 129.014 80.1003 123.67C77.8356 119.772 75.863 116.462 75.7169 116.316C75.4912 116.09 61.7822 123.709 60.9027 124.549C60.7357 124.709 61.7065 126.743 63.06 129.071C64.4136 131.398 66.3218 134.685 67.3005 136.375C68.2791 138.065 69.245 139.448 69.4467 139.448C69.6485 139.448 72.8328 137.707 76.5229 135.58ZM108.44 86.5986C108.612 86.4092 108.976 81.772 109.25 76.2937C109.524 70.8154 109.838 65.904 109.947 65.3795L110.145 64.4258H100.395C90.6631 64.4258 90.6448 64.4276 90.6448 65.3485C90.6448 65.856 90.3378 70.7304 89.9627 76.1806C89.5875 81.6308 89.4119 86.2224 89.5724 86.3841C90.3543 87.1718 107.741 87.3694 108.44 86.5986ZM81.0803 84.241C81.2066 83.2502 81.5108 78.911 81.7562 74.5983C82.0016 70.2856 82.2864 66.2325 82.389 65.5914C82.5736 64.439 82.5494 64.4258 80.2566 64.4258C78.1359 64.4258 77.9371 64.5074 77.9314 65.3795C77.9282 65.904 77.6449 70.2432 77.3022 75.0222C76.4648 86.7015 76.3384 85.5402 78.467 85.732C79.4571 85.8213 80.3985 85.9276 80.559 85.9683C80.7194 86.009 80.954 85.2318 81.0803 84.241ZM68.2437 84.6649C68.2703 84.6065 68.6049 80.0289 68.9872 74.4924L69.6823 64.4258H39.1391H8.59586L8.74886 66.4391C8.833 67.5464 9.08196 71.4793 9.30209 75.1788C9.52222 78.8783 9.78744 81.9903 9.89148 82.0945C9.99553 82.1986 13.2925 82.0864 17.2181 81.8444C26.9236 81.247 41.0564 81.9226 60.1766 83.898C64.2375 84.3176 67.703 84.6856 67.8777 84.7158C68.0524 84.7461 68.2171 84.7238 68.2437 84.6649ZM83.1703 53.0877C83.313 51.5142 83.5524 48.0332 83.7025 45.3524C84.0434 39.2631 84.4768 38.1262 86.8874 36.9979C87.9056 36.5213 100.842 31.1272 115.636 25.0109C130.429 18.8947 142.596 13.8327 142.674 13.7621C142.751 13.6915 142.429 12.7602 141.957 11.6924C141.172 9.91729 141.011 9.78431 140.078 10.1392C138.539 10.725 80.2858 34.8643 80.1454 34.9747C79.9825 35.1028 78.7987 51.8586 78.7909 54.1473L78.7845 55.9487H80.8476H82.9108L83.1703 53.0877Z"
          fill="#494949"/>
    <path d="M18.6994 216.564C13.5347 215.53 9.73222 211.257 8.83318 205.477C8.6054 204.012 6.54451 170.675 4.25342 131.395C0.613276 68.9846 0.160502 59.7997 0.664043 58.5826C1.78672 55.869 0.679881 55.9488 37.2248 55.9488H70.241L70.5004 52.8758C70.643 51.1857 71.0464 45.5356 71.3967 40.3199C71.747 35.1043 72.224 30.481 72.4567 30.0459C72.6894 29.6107 73.4347 28.9676 74.1129 28.6167C76.1554 27.5597 139.846 1.19539 141.843 0.579964C143.449 0.0850985 143.881 0.0974751 145.093 0.673231C145.867 1.04084 146.772 1.93717 147.12 2.68185C148.32 5.2468 151.944 14.2043 152.192 15.2196C152.502 16.4866 151.55 18.8646 150.509 19.4219C150.081 19.6511 136.961 25.1217 121.353 31.5787C105.745 38.0358 92.7504 43.538 92.4765 43.8058C92.1755 44.1001 91.8596 46.5983 91.6781 50.1208L91.3776 55.9488H102.885C112.03 55.9488 114.697 56.0762 115.876 56.5693C118.848 57.8116 118.96 52.3088 114.347 131.395C112.056 170.675 109.998 203.995 109.774 205.438C109.013 210.339 106.393 213.924 102.133 215.895C100.181 216.799 100.067 216.802 60.3593 216.867C38.4605 216.903 19.7136 216.767 18.6994 216.564ZM99.5716 207.993C101.06 206.841 101.644 205.262 101.923 201.631L102.206 197.94H94.9104H87.6146L86.3765 196.701C84.6676 194.991 84.6676 192.836 86.3765 191.126L87.6146 189.887H95.0338H102.453L102.68 188.085C102.917 186.217 108.032 98.5445 108.019 96.5959L108.011 95.4934L98.3745 95.2428C91.9777 95.0763 82.8288 94.4084 71.1599 93.2559C38.232 90.0036 24.1946 89.2525 15.0432 90.2532C12.4843 90.533 10.3395 90.813 10.2771 90.8755C10.2146 90.938 11.677 116.69 13.5267 148.101C17.1038 208.846 16.8721 206.324 19.0285 207.993C19.9982 208.743 98.602 208.743 99.5716 207.993ZM74.0928 196.701C73.1762 195.784 72.8547 195.06 72.8547 193.913C72.8547 192.767 73.1762 192.043 74.0928 191.126C75.7157 189.502 77.776 189.449 79.5994 190.984C82.3448 193.296 80.5283 197.94 76.8786 197.94C75.7328 197.94 75.0095 197.618 74.0928 196.701ZM42.745 189.753C37.756 186.881 31.4339 183.241 28.6959 181.663C25.9579 180.085 23.4323 178.387 23.0835 177.888C21.6065 175.778 22.0712 174.637 30.1089 160.634C34.3217 153.294 38.3275 146.765 39.0107 146.124C40.4301 144.792 41.8134 144.655 43.7461 145.655C49.0881 148.419 70.2876 160.925 71.0545 161.764C72.8547 163.734 72.4995 164.682 65.195 177.395C61.4482 183.916 57.7379 190.314 56.95 191.613C55.5678 193.893 54.1608 194.973 52.5731 194.973C52.1566 194.973 47.734 192.624 42.745 189.753ZM56.2331 176.429C59.018 171.592 61.5128 167.221 61.777 166.716C62.2333 165.844 61.7762 165.519 52.663 160.25C47.386 157.198 43.0347 154.75 42.9933 154.81C41.927 156.35 32.4915 173.2 32.4552 173.63C32.4129 174.129 38.273 177.761 51.1051 185.187C51.1405 185.208 53.4481 181.267 56.2331 176.429ZM65.2992 148.501C64.5741 147.835 61.0217 142.143 57.4049 135.854C50.3486 123.583 49.9954 122.627 51.7819 120.626C52.3061 120.039 57.8814 116.596 64.1714 112.975C76.6142 105.811 77.686 105.424 79.7788 107.341C81.3848 108.812 93.6757 130.436 93.9114 132.205C94.0608 133.326 93.8806 134.022 93.2257 134.854C92.1026 136.279 69.8487 149.188 67.9954 149.489C66.8881 149.669 66.3584 149.474 65.2992 148.501ZM77.9376 134.793C81.3156 132.847 84.1434 131.206 84.2217 131.147C84.3765 131.03 76.3755 117.006 75.8097 116.403C75.5173 116.091 63.5655 122.58 61.3172 124.271C60.6412 124.78 60.9348 125.44 64.9007 132.338L69.2204 139.851L70.5081 139.091C71.2163 138.673 74.5596 136.739 77.9376 134.793ZM106.568 87.0472L108.726 86.7877L109.24 76.7724C109.522 71.264 109.853 66.2325 109.975 65.5914L110.196 64.4258H100.421H90.6448L90.6384 65.3795C90.6352 65.904 90.3518 70.2432 90.0092 75.0222C89.6665 79.8012 89.3834 84.4198 89.38 85.2858L89.3736 86.8604L93.7152 86.9979C103.026 87.2925 104.483 87.298 106.568 87.0472ZM81.0785 84.6649C81.1963 83.9072 81.4975 79.7588 81.7476 75.446C81.9978 71.1333 82.308 66.8895 82.4369 66.0153L82.6713 64.4258H80.3045C78.335 64.4258 77.9365 64.5504 77.9314 65.1676C77.9282 65.5755 77.6449 69.8194 77.3022 74.5983C76.447 86.525 76.3623 85.5355 78.2553 85.7336C79.1289 85.8251 80.0733 85.932 80.3539 85.9711C80.6346 86.0104 80.9606 85.4225 81.0785 84.6649ZM68.8988 76.9243C69.1692 72.731 69.4847 68.2034 69.5999 66.863L69.8093 64.4258H39.1068H8.4042L8.62395 65.5914C8.74482 66.2325 8.95673 69.332 9.09488 72.4791C9.23302 75.6262 9.45221 79.1629 9.58197 80.3385L9.81789 82.4758L12.6392 82.1616C21.0714 81.2225 41.0562 81.9601 59.7239 83.8993C63.8008 84.3229 67.4224 84.6422 67.7718 84.6089C68.2905 84.5595 68.4974 83.1489 68.8988 76.9243ZM83.0364 55.6309C83.4227 47.9331 84.285 39.4168 84.7544 38.6647C85.5071 37.4587 83.4747 38.3561 115.212 25.2157C130.238 18.9943 142.582 13.8573 142.643 13.8001C142.703 13.7428 142.42 12.7974 142.013 11.6991C141.498 10.3091 141.079 9.75776 140.632 9.8852C139.845 10.1101 80.3256 34.8002 80.12 34.9874C80.039 35.0611 79.6523 39.8075 79.2606 45.5351L78.5484 55.9488H80.7844C82.0142 55.9488 83.0276 55.8057 83.0364 55.6309Z"
          fill="#333333"/>
</svg>
