<svg width="315" height="315" viewBox="0 0 315 315" fill="none" xmlns="http://www.w3.org/2000/svg">
    <path d="M86.1172 0H76.2943V9.82289H86.1172V0Z" fill="black"/>
    <path d="M105.191 0H95.3679V9.82289H105.191V0Z" fill="black"/>
    <path d="M133.801 0H123.978V9.82289H133.801V0Z" fill="black"/>
    <path d="M152.875 0H143.052V9.82289H152.875V0Z" fill="black"/>
    <path d="M200.559 0H190.736V9.82289H200.559V0Z" fill="black"/>
    <path d="M210.095 0H200.272V9.82289H210.095V0Z" fill="black"/>
    <path d="M229.169 0H219.346V9.82289H229.169V0Z" fill="black"/>
    <path d="M238.706 0H228.883V9.82289H238.706V0Z" fill="black"/>
    <path d="M86.1172 9.53677H76.2943V19.3597H86.1172V9.53677Z" fill="black"/>
    <path d="M95.6539 9.53677H85.8311V19.3597H95.6539V9.53677Z" fill="black"/>
    <path d="M105.191 9.53677H95.3679V19.3597H105.191V9.53677Z" fill="black"/>
    <path d="M114.728 9.53677H104.905V19.3597H114.728V9.53677Z" fill="black"/>
    <path d="M124.264 9.53677H114.441V19.3597H124.264V9.53677Z" fill="black"/>
    <path d="M143.338 9.53677H133.515V19.3597H143.338V9.53677Z" fill="black"/>
    <path d="M162.411 9.53677H152.589V19.3597H162.411V9.53677Z" fill="black"/>
    <path d="M171.948 9.53677H162.125V19.3597H171.948V9.53677Z" fill="black"/>
    <path d="M181.485 9.53677H171.662V19.3597H181.485V9.53677Z" fill="black"/>
    <path d="M191.022 9.53677H181.199V19.3597H191.022V9.53677Z" fill="black"/>
    <path d="M200.559 9.53677H190.736V19.3597H200.559V9.53677Z" fill="black"/>
    <path d="M210.095 9.53677H200.272V19.3597H210.095V9.53677Z" fill="black"/>
    <path d="M86.1172 19.0736H76.2943V28.8965H86.1172V19.0736Z" fill="black"/>
    <path d="M95.6539 19.0736H85.8311V28.8965H95.6539V19.0736Z" fill="black"/>
    <path d="M105.191 19.0736H95.3679V28.8965H105.191V19.0736Z" fill="black"/>
    <path d="M114.728 19.0736H104.905V28.8965H114.728V19.0736Z" fill="black"/>
    <path d="M143.338 19.0736H133.515V28.8965H143.338V19.0736Z" fill="black"/>
    <path d="M152.875 19.0736H143.052V28.8965H152.875V19.0736Z" fill="black"/>
    <path d="M162.411 19.0736H152.589V28.8965H162.411V19.0736Z" fill="black"/>
    <path d="M171.948 19.0736H162.125V28.8965H171.948V19.0736Z" fill="black"/>
    <path d="M181.485 19.0736H171.662V28.8965H181.485V19.0736Z" fill="black"/>
    <path d="M191.022 19.0736H181.199V28.8965H191.022V19.0736Z" fill="black"/>
    <path d="M200.559 19.0736H190.736V28.8965H200.559V19.0736Z" fill="black"/>
    <path d="M210.095 19.0736H200.272V28.8965H210.095V19.0736Z" fill="black"/>
    <path d="M219.632 19.0736H209.809V28.8965H219.632V19.0736Z" fill="black"/>
    <path d="M229.169 19.0736H219.346V28.8965H229.169V19.0736Z" fill="black"/>
    <path d="M95.6539 28.6104H85.8311V38.4332H95.6539V28.6104Z" fill="black"/>
    <path d="M105.191 28.6104H95.3679V38.4332H105.191V28.6104Z" fill="black"/>
    <path d="M124.264 28.6104H114.441V38.4332H124.264V28.6104Z" fill="black"/>
    <path d="M133.801 28.6104H123.978V38.4332H133.801V28.6104Z" fill="black"/>
    <path d="M143.338 28.6104H133.515V38.4332H143.338V28.6104Z" fill="black"/>
    <path d="M152.875 28.6104H143.052V38.4332H152.875V28.6104Z" fill="black"/>
    <path d="M162.411 28.6104H152.589V38.4332H162.411V28.6104Z" fill="black"/>
    <path d="M171.948 28.6104H162.125V38.4332H171.948V28.6104Z" fill="black"/>
    <path d="M219.632 28.6104H209.809V38.4332H219.632V28.6104Z" fill="black"/>
    <path d="M229.169 28.6104H219.346V38.4332H229.169V28.6104Z" fill="black"/>
    <path d="M105.191 38.1472H95.3679V47.97H105.191V38.1472Z" fill="black"/>
    <path d="M114.728 38.1472H104.905V47.97H114.728V38.1472Z" fill="black"/>
    <path d="M171.948 38.1472H162.125V47.97H171.948V38.1472Z" fill="black"/>
    <path d="M181.485 38.1472H171.662V47.97H181.485V38.1472Z" fill="black"/>
    <path d="M191.022 38.1472H181.199V47.97H191.022V38.1472Z" fill="black"/>
    <path d="M210.095 38.1472H200.272V47.97H210.095V38.1472Z" fill="black"/>
    <path d="M219.632 38.1472H209.809V47.97H219.632V38.1472Z" fill="black"/>
    <path d="M238.706 38.1472H228.883V47.97H238.706V38.1472Z" fill="black"/>
    <path d="M86.1172 47.6839H76.2943V57.5068H86.1172V47.6839Z" fill="black"/>
    <path d="M124.264 47.6839H114.441V57.5068H124.264V47.6839Z" fill="black"/>
    <path d="M133.801 47.6839H123.978V57.5068H133.801V47.6839Z" fill="black"/>
    <path d="M162.411 47.6839H152.589V57.5068H162.411V47.6839Z" fill="black"/>
    <path d="M171.948 47.6839H162.125V57.5068H171.948V47.6839Z" fill="black"/>
    <path d="M191.022 47.6839H181.199V57.5068H191.022V47.6839Z" fill="black"/>
    <path d="M210.095 47.6839H200.272V57.5068H210.095V47.6839Z" fill="black"/>
    <path d="M86.1172 57.2207H76.2943V67.0436H86.1172V57.2207Z" fill="black"/>
    <path d="M105.191 57.2207H95.3679V67.0436H105.191V57.2207Z" fill="black"/>
    <path d="M124.264 57.2207H114.441V67.0436H124.264V57.2207Z" fill="black"/>
    <path d="M143.338 57.2207H133.515V67.0436H143.338V57.2207Z" fill="black"/>
    <path d="M162.411 57.2207H152.589V67.0436H162.411V57.2207Z" fill="black"/>
    <path d="M181.485 57.2207H171.662V67.0436H181.485V57.2207Z" fill="black"/>
    <path d="M200.559 57.2207H190.736V67.0436H200.559V57.2207Z" fill="black"/>
    <path d="M219.632 57.2207H209.809V67.0436H219.632V57.2207Z" fill="black"/>
    <path d="M238.706 57.2207H228.883V67.0436H238.706V57.2207Z" fill="black"/>
    <path d="M86.1172 66.7575H76.2943V76.5804H86.1172V66.7575Z" fill="black"/>
    <path d="M95.6539 66.7575H85.8311V76.5804H95.6539V66.7575Z" fill="black"/>
    <path d="M152.875 66.7575H143.052V76.5804H152.875V66.7575Z" fill="black"/>
    <path d="M181.485 66.7575H171.662V76.5804H181.485V66.7575Z" fill="black"/>
    <path d="M191.022 66.7575H181.199V76.5804H191.022V66.7575Z" fill="black"/>
    <path d="M210.095 66.7575H200.272V76.5804H210.095V66.7575Z" fill="black"/>
    <path d="M238.706 66.7575H228.883V76.5804H238.706V66.7575Z" fill="black"/>
    <path d="M28.8964 76.2943H19.0735V86.1172H28.8964V76.2943Z" fill="black"/>
    <path d="M38.4332 76.2943H28.6104V86.1172H38.4332V76.2943Z" fill="black"/>
    <path d="M47.97 76.2943H38.1472V86.1172H47.97V76.2943Z" fill="black"/>
    <path d="M67.0436 76.2943H57.2207V86.1172H67.0436V76.2943Z" fill="black"/>
    <path d="M86.1172 76.2943H76.2943V86.1172H86.1172V76.2943Z" fill="black"/>
    <path d="M95.6539 76.2943H85.8311V86.1172H95.6539V76.2943Z" fill="black"/>
    <path d="M105.191 76.2943H95.3679V86.1172H105.191V76.2943Z" fill="black"/>
    <path d="M114.728 76.2943H104.905V86.1172H114.728V76.2943Z" fill="black"/>
    <path d="M124.264 76.2943H114.441V86.1172H124.264V76.2943Z" fill="black"/>
    <path d="M133.801 76.2943H123.978V86.1172H133.801V76.2943Z" fill="black"/>
    <path d="M143.338 76.2943H133.515V86.1172H143.338V76.2943Z" fill="black"/>
    <path d="M162.411 76.2943H152.589V86.1172H162.411V76.2943Z" fill="black"/>
    <path d="M171.948 76.2943H162.125V86.1172H171.948V76.2943Z" fill="black"/>
    <path d="M181.485 76.2943H171.662V86.1172H181.485V76.2943Z" fill="black"/>
    <path d="M191.022 76.2943H181.199V86.1172H191.022V76.2943Z" fill="black"/>
    <path d="M200.559 76.2943H190.736V86.1172H200.559V76.2943Z" fill="black"/>
    <path d="M219.632 76.2943H209.809V86.1172H219.632V76.2943Z" fill="black"/>
    <path d="M248.243 76.2943H238.42V86.1172H248.243V76.2943Z" fill="black"/>
    <path d="M257.779 76.2943H247.956V86.1172H257.779V76.2943Z" fill="black"/>
    <path d="M267.316 76.2943H257.493V86.1172H267.316V76.2943Z" fill="black"/>
    <path d="M295.926 76.2943H286.104V86.1172H295.926V76.2943Z" fill="black"/>
    <path d="M305.463 76.2943H295.64V86.1172H305.463V76.2943Z" fill="black"/>
    <path d="M315 76.2943H305.177V86.1172H315V76.2943Z" fill="black"/>
    <path d="M9.82289 85.8311H0V95.6539H9.82289V85.8311Z" fill="black"/>
    <path d="M28.8964 85.8311H19.0735V95.6539H28.8964V85.8311Z" fill="black"/>
    <path d="M86.1172 85.8311H76.2943V95.6539H86.1172V85.8311Z" fill="black"/>
    <path d="M95.6539 85.8311H85.8311V95.6539H95.6539V85.8311Z" fill="black"/>
    <path d="M105.191 85.8311H95.3679V95.6539H105.191V85.8311Z" fill="black"/>
    <path d="M124.264 85.8311H114.441V95.6539H124.264V85.8311Z" fill="black"/>
    <path d="M133.801 85.8311H123.978V95.6539H133.801V85.8311Z" fill="black"/>
    <path d="M152.875 85.8311H143.052V95.6539H152.875V85.8311Z" fill="black"/>
    <path d="M181.485 85.8311H171.662V95.6539H181.485V85.8311Z" fill="black"/>
    <path d="M229.169 85.8311H219.346V95.6539H229.169V85.8311Z" fill="black"/>
    <path d="M248.243 85.8311H238.42V95.6539H248.243V85.8311Z" fill="black"/>
    <path d="M257.779 85.8311H247.956V95.6539H257.779V85.8311Z" fill="black"/>
    <path d="M305.463 85.8311H295.64V95.6539H305.463V85.8311Z" fill="black"/>
    <path d="M315 85.8311H305.177V95.6539H315V85.8311Z" fill="black"/>
    <path d="M67.0436 95.3679H57.2207V105.191H67.0436V95.3679Z" fill="black"/>
    <path d="M76.5804 95.3679H66.7575V105.191H76.5804V95.3679Z" fill="black"/>
    <path d="M95.6539 95.3679H85.8311V105.191H95.6539V95.3679Z" fill="black"/>
    <path d="M105.191 95.3679H95.3679V105.191H105.191V95.3679Z" fill="black"/>
    <path d="M124.264 95.3679H114.441V105.191H124.264V95.3679Z" fill="black"/>
    <path d="M133.801 95.3679H123.978V105.191H133.801V95.3679Z" fill="black"/>
    <path d="M143.338 95.3679H133.515V105.191H143.338V95.3679Z" fill="black"/>
    <path d="M200.559 95.3679H190.736V105.191H200.559V95.3679Z" fill="black"/>
    <path d="M219.632 95.3679H209.809V105.191H219.632V95.3679Z" fill="black"/>
    <path d="M238.706 95.3679H228.883V105.191H238.706V95.3679Z" fill="black"/>
    <path d="M257.779 95.3679H247.956V105.191H257.779V95.3679Z" fill="black"/>
    <path d="M267.316 95.3679H257.493V105.191H267.316V95.3679Z" fill="black"/>
    <path d="M286.39 95.3679H276.567V105.191H286.39V95.3679Z" fill="black"/>
    <path d="M295.926 95.3679H286.104V105.191H295.926V95.3679Z" fill="black"/>
    <path d="M305.463 95.3679H295.64V105.191H305.463V95.3679Z" fill="black"/>
    <path d="M9.82289 104.905H0V114.728H9.82289V104.905Z" fill="black"/>
    <path d="M19.3597 104.905H9.5368V114.728H19.3597V104.905Z" fill="black"/>
    <path d="M28.8964 104.905H19.0735V114.728H28.8964V104.905Z" fill="black"/>
    <path d="M105.191 104.905H95.3679V114.728H105.191V104.905Z" fill="black"/>
    <path d="M114.728 104.905H104.905V114.728H114.728V104.905Z" fill="black"/>
    <path d="M124.264 104.905H114.441V114.728H124.264V104.905Z" fill="black"/>
    <path d="M133.801 104.905H123.978V114.728H133.801V104.905Z" fill="black"/>
    <path d="M171.948 104.905H162.125V114.728H171.948V104.905Z" fill="black"/>
    <path d="M181.485 104.905H171.662V114.728H181.485V104.905Z" fill="black"/>
    <path d="M200.559 104.905H190.736V114.728H200.559V104.905Z" fill="black"/>
    <path d="M229.169 104.905H219.346V114.728H229.169V104.905Z" fill="black"/>
    <path d="M248.243 104.905H238.42V114.728H248.243V104.905Z" fill="black"/>
    <path d="M257.779 104.905H247.956V114.728H257.779V104.905Z" fill="black"/>
    <path d="M295.926 104.905H286.104V114.728H295.926V104.905Z" fill="black"/>
    <path d="M305.463 104.905H295.64V114.728H305.463V104.905Z" fill="black"/>
    <path d="M315 104.905H305.177V114.728H315V104.905Z" fill="black"/>
    <path d="M28.8964 114.441H19.0735V124.264H28.8964V114.441Z" fill="black"/>
    <path d="M47.97 114.441H38.1472V124.264H47.97V114.441Z" fill="black"/>
    <path d="M67.0436 114.441H57.2207V124.264H67.0436V114.441Z" fill="black"/>
    <path d="M95.6539 114.441H85.8311V124.264H95.6539V114.441Z" fill="black"/>
    <path d="M105.191 114.441H95.3679V124.264H105.191V114.441Z" fill="black"/>
    <path d="M124.264 114.441H114.441V124.264H124.264V114.441Z" fill="black"/>
    <path d="M133.801 114.441H123.978V124.264H133.801V114.441Z" fill="black"/>
    <path d="M152.875 114.441H143.052V124.264H152.875V114.441Z" fill="black"/>
    <path d="M162.411 114.441H152.589V124.264H162.411V114.441Z" fill="black"/>
    <path d="M171.948 114.441H162.125V124.264H171.948V114.441Z" fill="black"/>
    <path d="M181.485 114.441H171.662V124.264H181.485V114.441Z" fill="black"/>
    <path d="M191.022 114.441H181.199V124.264H191.022V114.441Z" fill="black"/>
    <path d="M200.559 114.441H190.736V124.264H200.559V114.441Z" fill="black"/>
    <path d="M210.095 114.441H200.272V124.264H210.095V114.441Z" fill="black"/>
    <path d="M219.632 114.441H209.809V124.264H219.632V114.441Z" fill="black"/>
    <path d="M229.169 114.441H219.346V124.264H229.169V114.441Z" fill="black"/>
    <path d="M238.706 114.441H228.883V124.264H238.706V114.441Z" fill="black"/>
    <path d="M248.243 114.441H238.42V124.264H248.243V114.441Z" fill="black"/>
    <path d="M267.316 114.441H257.493V124.264H267.316V114.441Z" fill="black"/>
    <path d="M305.463 114.441H295.64V124.264H305.463V114.441Z" fill="black"/>
    <path d="M19.3597 123.978H9.5368V133.801H19.3597V123.978Z" fill="black"/>
    <path d="M28.8964 123.978H19.0735V133.801H28.8964V123.978Z" fill="black"/>
    <path d="M47.97 123.978H38.1472V133.801H47.97V123.978Z" fill="black"/>
    <path d="M76.5804 123.978H66.7575V133.801H76.5804V123.978Z" fill="black"/>
    <path d="M86.1172 123.978H76.2943V133.801H86.1172V123.978Z" fill="black"/>
    <path d="M95.6539 123.978H85.8311V133.801H95.6539V123.978Z" fill="black"/>
    <path d="M105.191 123.978H95.3679V133.801H105.191V123.978Z" fill="black"/>
    <path d="M143.338 123.978H133.515V133.801H143.338V123.978Z" fill="black"/>
    <path d="M152.875 123.978H143.052V133.801H152.875V123.978Z" fill="black"/>
    <path d="M171.948 123.978H162.125V133.801H171.948V123.978Z" fill="black"/>
    <path d="M181.485 123.978H171.662V133.801H181.485V123.978Z" fill="black"/>
    <path d="M200.559 123.978H190.736V133.801H200.559V123.978Z" fill="black"/>
    <path d="M229.169 123.978H219.346V133.801H229.169V123.978Z" fill="black"/>
    <path d="M257.779 123.978H247.956V133.801H257.779V123.978Z" fill="black"/>
    <path d="M276.853 123.978H267.03V133.801H276.853V123.978Z" fill="black"/>
    <path d="M286.39 123.978H276.567V133.801H286.39V123.978Z" fill="black"/>
    <path d="M315 123.978H305.177V133.801H315V123.978Z" fill="black"/>
    <path d="M9.82289 133.515H0V143.338H9.82289V133.515Z" fill="black"/>
    <path d="M38.4332 133.515H28.6104V143.338H38.4332V133.515Z" fill="black"/>
    <path d="M67.0436 133.515H57.2207V143.338H67.0436V133.515Z" fill="black"/>
    <path d="M76.5804 133.515H66.7575V143.338H76.5804V133.515Z" fill="black"/>
    <path d="M95.6539 133.515H85.8311V143.338H95.6539V133.515Z" fill="black"/>
    <path d="M124.264 133.515H114.441V143.338H124.264V133.515Z" fill="black"/>
    <path d="M143.338 133.515H133.515V143.338H143.338V133.515Z" fill="black"/>
    <path d="M152.875 133.515H143.052V143.338H152.875V133.515Z" fill="black"/>
    <path d="M162.411 133.515H152.589V143.338H162.411V133.515Z" fill="black"/>
    <path d="M171.948 133.515H162.125V143.338H171.948V133.515Z" fill="black"/>
    <path d="M181.485 133.515H171.662V143.338H181.485V133.515Z" fill="black"/>
    <path d="M200.559 133.515H190.736V143.338H200.559V133.515Z" fill="black"/>
    <path d="M219.632 133.515H209.809V143.338H219.632V133.515Z" fill="black"/>
    <path d="M238.706 133.515H228.883V143.338H238.706V133.515Z" fill="black"/>
    <path d="M248.243 133.515H238.42V143.338H248.243V133.515Z" fill="black"/>
    <path d="M267.316 133.515H257.493V143.338H267.316V133.515Z" fill="black"/>
    <path d="M276.853 133.515H267.03V143.338H276.853V133.515Z" fill="black"/>
    <path d="M305.463 133.515H295.64V143.338H305.463V133.515Z" fill="black"/>
    <path d="M19.3597 143.052H9.5368V152.875H19.3597V143.052Z" fill="black"/>
    <path d="M28.8964 143.052H19.0735V152.875H28.8964V143.052Z" fill="black"/>
    <path d="M57.5068 143.052H47.6839V152.875H57.5068V143.052Z" fill="black"/>
    <path d="M76.5804 143.052H66.7575V152.875H76.5804V143.052Z" fill="black"/>
    <path d="M86.1172 143.052H76.2943V152.875H86.1172V143.052Z" fill="black"/>
    <path d="M105.191 143.052H95.3679V152.875H105.191V143.052Z" fill="black"/>
    <path d="M114.728 143.052H104.905V152.875H114.728V143.052Z" fill="black"/>
    <path d="M152.875 143.052H143.052V152.875H152.875V143.052Z" fill="black"/>
    <path d="M181.485 143.052H171.662V152.875H181.485V143.052Z" fill="black"/>
    <path d="M191.022 143.052H181.199V152.875H191.022V143.052Z" fill="black"/>
    <path d="M210.095 143.052H200.272V152.875H210.095V143.052Z" fill="black"/>
    <path d="M219.632 143.052H209.809V152.875H219.632V143.052Z" fill="black"/>
    <path d="M229.169 143.052H219.346V152.875H229.169V143.052Z" fill="black"/>
    <path d="M276.853 143.052H267.03V152.875H276.853V143.052Z" fill="black"/>
    <path d="M286.39 143.052H276.567V152.875H286.39V143.052Z" fill="black"/>
    <path d="M315 143.052H305.177V152.875H315V143.052Z" fill="black"/>
    <path d="M28.8964 152.589H19.0735V162.411H28.8964V152.589Z" fill="black"/>
    <path d="M38.4332 152.589H28.6104V162.411H38.4332V152.589Z" fill="black"/>
    <path d="M47.97 152.589H38.1472V162.411H47.97V152.589Z" fill="black"/>
    <path d="M67.0436 152.589H57.2207V162.411H67.0436V152.589Z" fill="black"/>
    <path d="M76.5804 152.589H66.7575V162.411H76.5804V152.589Z" fill="black"/>
    <path d="M95.6539 152.589H85.8311V162.411H95.6539V152.589Z" fill="black"/>
    <path d="M105.191 152.589H95.3679V162.411H105.191V152.589Z" fill="black"/>
    <path d="M152.875 152.589H143.052V162.411H152.875V152.589Z" fill="black"/>
    <path d="M162.411 152.589H152.589V162.411H162.411V152.589Z" fill="black"/>
    <path d="M191.022 152.589H181.199V162.411H191.022V152.589Z" fill="black"/>
    <path d="M200.559 152.589H190.736V162.411H200.559V152.589Z" fill="black"/>
    <path d="M219.632 152.589H209.809V162.411H219.632V152.589Z" fill="black"/>
    <path d="M229.169 152.589H219.346V162.411H229.169V152.589Z" fill="black"/>
    <path d="M238.706 152.589H228.883V162.411H238.706V152.589Z" fill="black"/>
    <path d="M248.243 152.589H238.42V162.411H248.243V152.589Z" fill="black"/>
    <path d="M267.316 152.589H257.493V162.411H267.316V152.589Z" fill="black"/>
    <path d="M276.853 152.589H267.03V162.411H276.853V152.589Z" fill="black"/>
    <path d="M295.926 152.589H286.104V162.411H295.926V152.589Z" fill="black"/>
    <path d="M315 152.589H305.177V162.411H315V152.589Z" fill="black"/>
    <path d="M19.3597 162.125H9.5368V171.948H19.3597V162.125Z" fill="black"/>
    <path d="M47.97 162.125H38.1472V171.948H47.97V162.125Z" fill="black"/>
    <path d="M124.264 162.125H114.441V171.948H124.264V162.125Z" fill="black"/>
    <path d="M171.948 162.125H162.125V171.948H171.948V162.125Z" fill="black"/>
    <path d="M210.095 162.125H200.272V171.948H210.095V162.125Z" fill="black"/>
    <path d="M219.632 162.125H209.809V171.948H219.632V162.125Z" fill="black"/>
    <path d="M229.169 162.125H219.346V171.948H229.169V162.125Z" fill="black"/>
    <path d="M238.706 162.125H228.883V171.948H238.706V162.125Z" fill="black"/>
    <path d="M257.779 162.125H247.956V171.948H257.779V162.125Z" fill="black"/>
    <path d="M19.3597 171.662H9.5368V181.485H19.3597V171.662Z" fill="black"/>
    <path d="M38.4332 171.662H28.6104V181.485H38.4332V171.662Z" fill="black"/>
    <path d="M57.5068 171.662H47.6839V181.485H57.5068V171.662Z" fill="black"/>
    <path d="M67.0436 171.662H57.2207V181.485H67.0436V171.662Z" fill="black"/>
    <path d="M76.5804 171.662H66.7575V181.485H76.5804V171.662Z" fill="black"/>
    <path d="M86.1172 171.662H76.2943V181.485H86.1172V171.662Z" fill="black"/>
    <path d="M95.6539 171.662H85.8311V181.485H95.6539V171.662Z" fill="black"/>
    <path d="M105.191 171.662H95.3679V181.485H105.191V171.662Z" fill="black"/>
    <path d="M114.728 171.662H104.905V181.485H114.728V171.662Z" fill="black"/>
    <path d="M133.801 171.662H123.978V181.485H133.801V171.662Z" fill="black"/>
    <path d="M143.338 171.662H133.515V181.485H143.338V171.662Z" fill="black"/>
    <path d="M152.875 171.662H143.052V181.485H152.875V171.662Z" fill="black"/>
    <path d="M171.948 171.662H162.125V181.485H171.948V171.662Z" fill="black"/>
    <path d="M181.485 171.662H171.662V181.485H181.485V171.662Z" fill="black"/>
    <path d="M191.022 171.662H181.199V181.485H191.022V171.662Z" fill="black"/>
    <path d="M200.559 171.662H190.736V181.485H200.559V171.662Z" fill="black"/>
    <path d="M210.095 171.662H200.272V181.485H210.095V171.662Z" fill="black"/>
    <path d="M238.706 171.662H228.883V181.485H238.706V171.662Z" fill="black"/>
    <path d="M276.853 171.662H267.03V181.485H276.853V171.662Z" fill="black"/>
    <path d="M295.926 171.662H286.104V181.485H295.926V171.662Z" fill="black"/>
    <path d="M9.82289 181.199H0V191.022H9.82289V181.199Z" fill="black"/>
    <path d="M57.5068 181.199H47.6839V191.022H57.5068V181.199Z" fill="black"/>
    <path d="M86.1172 181.199H76.2943V191.022H86.1172V181.199Z" fill="black"/>
    <path d="M114.728 181.199H104.905V191.022H114.728V181.199Z" fill="black"/>
    <path d="M124.264 181.199H114.441V191.022H124.264V181.199Z" fill="black"/>
    <path d="M133.801 181.199H123.978V191.022H133.801V181.199Z" fill="black"/>
    <path d="M143.338 181.199H133.515V191.022H143.338V181.199Z" fill="black"/>
    <path d="M171.948 181.199H162.125V191.022H171.948V181.199Z" fill="black"/>
    <path d="M200.559 181.199H190.736V191.022H200.559V181.199Z" fill="black"/>
    <path d="M210.095 181.199H200.272V191.022H210.095V181.199Z" fill="black"/>
    <path d="M229.169 181.199H219.346V191.022H229.169V181.199Z" fill="black"/>
    <path d="M238.706 181.199H228.883V191.022H238.706V181.199Z" fill="black"/>
    <path d="M248.243 181.199H238.42V191.022H248.243V181.199Z" fill="black"/>
    <path d="M286.39 181.199H276.567V191.022H286.39V181.199Z" fill="black"/>
    <path d="M295.926 181.199H286.104V191.022H295.926V181.199Z" fill="black"/>
    <path d="M305.463 181.199H295.64V191.022H305.463V181.199Z" fill="black"/>
    <path d="M315 181.199H305.177V191.022H315V181.199Z" fill="black"/>
    <path d="M38.4332 190.736H28.6104V200.559H38.4332V190.736Z" fill="black"/>
    <path d="M47.97 190.736H38.1472V200.559H47.97V190.736Z" fill="black"/>
    <path d="M67.0436 190.736H57.2207V200.559H67.0436V190.736Z" fill="black"/>
    <path d="M86.1172 190.736H76.2943V200.559H86.1172V190.736Z" fill="black"/>
    <path d="M133.801 190.736H123.978V200.559H133.801V190.736Z" fill="black"/>
    <path d="M143.338 190.736H133.515V200.559H143.338V190.736Z" fill="black"/>
    <path d="M152.875 190.736H143.052V200.559H152.875V190.736Z" fill="black"/>
    <path d="M171.948 190.736H162.125V200.559H171.948V190.736Z" fill="black"/>
    <path d="M181.485 190.736H171.662V200.559H181.485V190.736Z" fill="black"/>
    <path d="M191.022 190.736H181.199V200.559H191.022V190.736Z" fill="black"/>
    <path d="M200.559 190.736H190.736V200.559H200.559V190.736Z" fill="black"/>
    <path d="M219.632 190.736H209.809V200.559H219.632V190.736Z" fill="black"/>
    <path d="M229.169 190.736H219.346V200.559H229.169V190.736Z" fill="black"/>
    <path d="M238.706 190.736H228.883V200.559H238.706V190.736Z" fill="black"/>
    <path d="M267.316 190.736H257.493V200.559H267.316V190.736Z" fill="black"/>
    <path d="M276.853 190.736H267.03V200.559H276.853V190.736Z" fill="black"/>
    <path d="M286.39 190.736H276.567V200.559H286.39V190.736Z" fill="black"/>
    <path d="M305.463 190.736H295.64V200.559H305.463V190.736Z" fill="black"/>
    <path d="M315 190.736H305.177V200.559H315V190.736Z" fill="black"/>
    <path d="M9.82289 200.272H0V210.095H9.82289V200.272Z" fill="black"/>
    <path d="M76.5804 200.272H66.7575V210.095H76.5804V200.272Z" fill="black"/>
    <path d="M86.1172 200.272H76.2943V210.095H86.1172V200.272Z" fill="black"/>
    <path d="M95.6539 200.272H85.8311V210.095H95.6539V200.272Z" fill="black"/>
    <path d="M105.191 200.272H95.3679V210.095H105.191V200.272Z" fill="black"/>
    <path d="M133.801 200.272H123.978V210.095H133.801V200.272Z" fill="black"/>
    <path d="M152.875 200.272H143.052V210.095H152.875V200.272Z" fill="black"/>
    <path d="M181.485 200.272H171.662V210.095H181.485V200.272Z" fill="black"/>
    <path d="M191.022 200.272H181.199V210.095H191.022V200.272Z" fill="black"/>
    <path d="M200.559 200.272H190.736V210.095H200.559V200.272Z" fill="black"/>
    <path d="M248.243 200.272H238.42V210.095H248.243V200.272Z" fill="black"/>
    <path d="M286.39 200.272H276.567V210.095H286.39V200.272Z" fill="black"/>
    <path d="M295.926 200.272H286.104V210.095H295.926V200.272Z" fill="black"/>
    <path d="M315 200.272H305.177V210.095H315V200.272Z" fill="black"/>
    <path d="M9.82289 209.809H0V219.632H9.82289V209.809Z" fill="black"/>
    <path d="M38.4332 209.809H28.6104V219.632H38.4332V209.809Z" fill="black"/>
    <path d="M57.5068 209.809H47.6839V219.632H57.5068V209.809Z" fill="black"/>
    <path d="M67.0436 209.809H57.2207V219.632H67.0436V209.809Z" fill="black"/>
    <path d="M86.1172 209.809H76.2943V219.632H86.1172V209.809Z" fill="black"/>
    <path d="M95.6539 209.809H85.8311V219.632H95.6539V209.809Z" fill="black"/>
    <path d="M105.191 209.809H95.3679V219.632H105.191V209.809Z" fill="black"/>
    <path d="M133.801 209.809H123.978V219.632H133.801V209.809Z" fill="black"/>
    <path d="M152.875 209.809H143.052V219.632H152.875V209.809Z" fill="black"/>
    <path d="M162.411 209.809H152.589V219.632H162.411V209.809Z" fill="black"/>
    <path d="M171.948 209.809H162.125V219.632H171.948V209.809Z" fill="black"/>
    <path d="M181.485 209.809H171.662V219.632H181.485V209.809Z" fill="black"/>
    <path d="M191.022 209.809H181.199V219.632H191.022V209.809Z" fill="black"/>
    <path d="M200.559 209.809H190.736V219.632H200.559V209.809Z" fill="black"/>
    <path d="M210.095 209.809H200.272V219.632H210.095V209.809Z" fill="black"/>
    <path d="M219.632 209.809H209.809V219.632H219.632V209.809Z" fill="black"/>
    <path d="M229.169 209.809H219.346V219.632H229.169V209.809Z" fill="black"/>
    <path d="M238.706 209.809H228.883V219.632H238.706V209.809Z" fill="black"/>
    <path d="M267.316 209.809H257.493V219.632H267.316V209.809Z" fill="black"/>
    <path d="M276.853 209.809H267.03V219.632H276.853V209.809Z" fill="black"/>
    <path d="M286.39 209.809H276.567V219.632H286.39V209.809Z" fill="black"/>
    <path d="M305.463 209.809H295.64V219.632H305.463V209.809Z" fill="black"/>
    <path d="M9.82289 219.346H0V229.169H9.82289V219.346Z" fill="black"/>
    <path d="M28.8964 219.346H19.0735V229.169H28.8964V219.346Z" fill="black"/>
    <path d="M38.4332 219.346H28.6104V229.169H38.4332V219.346Z" fill="black"/>
    <path d="M57.5068 219.346H47.6839V229.169H57.5068V219.346Z" fill="black"/>
    <path d="M95.6539 219.346H85.8311V229.169H95.6539V219.346Z" fill="black"/>
    <path d="M105.191 219.346H95.3679V229.169H105.191V219.346Z" fill="black"/>
    <path d="M152.875 219.346H143.052V229.169H152.875V219.346Z" fill="black"/>
    <path d="M162.411 219.346H152.589V229.169H162.411V219.346Z" fill="black"/>
    <path d="M191.022 219.346H181.199V229.169H191.022V219.346Z" fill="black"/>
    <path d="M210.095 219.346H200.272V229.169H210.095V219.346Z" fill="black"/>
    <path d="M229.169 219.346H219.346V229.169H229.169V219.346Z" fill="black"/>
    <path d="M276.853 219.346H267.03V229.169H276.853V219.346Z" fill="black"/>
    <path d="M295.926 219.346H286.104V229.169H295.926V219.346Z" fill="black"/>
    <path d="M305.463 219.346H295.64V229.169H305.463V219.346Z" fill="black"/>
    <path d="M315 219.346H305.177V229.169H315V219.346Z" fill="black"/>
    <path d="M9.82289 228.883H0V238.706H9.82289V228.883Z" fill="black"/>
    <path d="M38.4332 228.883H28.6104V238.706H38.4332V228.883Z" fill="black"/>
    <path d="M47.97 228.883H38.1472V238.706H47.97V228.883Z" fill="black"/>
    <path d="M57.5068 228.883H47.6839V238.706H57.5068V228.883Z" fill="black"/>
    <path d="M67.0436 228.883H57.2207V238.706H67.0436V228.883Z" fill="black"/>
    <path d="M95.6539 228.883H85.8311V238.706H95.6539V228.883Z" fill="black"/>
    <path d="M114.728 228.883H104.905V238.706H114.728V228.883Z" fill="black"/>
    <path d="M124.264 228.883H114.441V238.706H124.264V228.883Z" fill="black"/>
    <path d="M133.801 228.883H123.978V238.706H133.801V228.883Z" fill="black"/>
    <path d="M143.338 228.883H133.515V238.706H143.338V228.883Z" fill="black"/>
    <path d="M152.875 228.883H143.052V238.706H152.875V228.883Z" fill="black"/>
    <path d="M162.411 228.883H152.589V238.706H162.411V228.883Z" fill="black"/>
    <path d="M171.948 228.883H162.125V238.706H171.948V228.883Z" fill="black"/>
    <path d="M191.022 228.883H181.199V238.706H191.022V228.883Z" fill="black"/>
    <path d="M200.559 228.883H190.736V238.706H200.559V228.883Z" fill="black"/>
    <path d="M229.169 228.883H219.346V238.706H229.169V228.883Z" fill="black"/>
    <path d="M238.706 228.883H228.883V238.706H238.706V228.883Z" fill="black"/>
    <path d="M248.243 228.883H238.42V238.706H248.243V228.883Z" fill="black"/>
    <path d="M257.779 228.883H247.956V238.706H257.779V228.883Z" fill="black"/>
    <path d="M267.316 228.883H257.493V238.706H267.316V228.883Z" fill="black"/>
    <path d="M276.853 228.883H267.03V238.706H276.853V228.883Z" fill="black"/>
    <path d="M315 228.883H305.177V238.706H315V228.883Z" fill="black"/>
    <path d="M86.1172 238.42H76.2943V248.243H86.1172V238.42Z" fill="black"/>
    <path d="M95.6539 238.42H85.8311V248.243H95.6539V238.42Z" fill="black"/>
    <path d="M105.191 238.42H95.3679V248.243H105.191V238.42Z" fill="black"/>
    <path d="M114.728 238.42H104.905V248.243H114.728V238.42Z" fill="black"/>
    <path d="M143.338 238.42H133.515V248.243H143.338V238.42Z" fill="black"/>
    <path d="M171.948 238.42H162.125V248.243H171.948V238.42Z" fill="black"/>
    <path d="M191.022 238.42H181.199V248.243H191.022V238.42Z" fill="black"/>
    <path d="M210.095 238.42H200.272V248.243H210.095V238.42Z" fill="black"/>
    <path d="M238.706 238.42H228.883V248.243H238.706V238.42Z" fill="black"/>
    <path d="M276.853 238.42H267.03V248.243H276.853V238.42Z" fill="black"/>
    <path d="M286.39 238.42H276.567V248.243H286.39V238.42Z" fill="black"/>
    <path d="M305.463 238.42H295.64V248.243H305.463V238.42Z" fill="black"/>
    <path d="M315 238.42H305.177V248.243H315V238.42Z" fill="black"/>
    <path d="M114.728 247.956H104.905V257.779H114.728V247.956Z" fill="black"/>
    <path d="M133.801 247.956H123.978V257.779H133.801V247.956Z" fill="black"/>
    <path d="M143.338 247.956H133.515V257.779H143.338V247.956Z" fill="black"/>
    <path d="M171.948 247.956H162.125V257.779H171.948V247.956Z" fill="black"/>
    <path d="M181.485 247.956H171.662V257.779H181.485V247.956Z" fill="black"/>
    <path d="M191.022 247.956H181.199V257.779H191.022V247.956Z" fill="black"/>
    <path d="M200.559 247.956H190.736V257.779H200.559V247.956Z" fill="black"/>
    <path d="M210.095 247.956H200.272V257.779H210.095V247.956Z" fill="black"/>
    <path d="M229.169 247.956H219.346V257.779H229.169V247.956Z" fill="black"/>
    <path d="M238.706 247.956H228.883V257.779H238.706V247.956Z" fill="black"/>
    <path d="M257.779 247.956H247.956V257.779H257.779V247.956Z" fill="black"/>
    <path d="M276.853 247.956H267.03V257.779H276.853V247.956Z" fill="black"/>
    <path d="M305.463 247.956H295.64V257.779H305.463V247.956Z" fill="black"/>
    <path d="M105.191 257.493H95.3679V267.316H105.191V257.493Z" fill="black"/>
    <path d="M124.264 257.493H114.441V267.316H124.264V257.493Z" fill="black"/>
    <path d="M133.801 257.493H123.978V267.316H133.801V257.493Z" fill="black"/>
    <path d="M171.948 257.493H162.125V267.316H171.948V257.493Z" fill="black"/>
    <path d="M181.485 257.493H171.662V267.316H181.485V257.493Z" fill="black"/>
    <path d="M210.095 257.493H200.272V267.316H210.095V257.493Z" fill="black"/>
    <path d="M219.632 257.493H209.809V267.316H219.632V257.493Z" fill="black"/>
    <path d="M238.706 257.493H228.883V267.316H238.706V257.493Z" fill="black"/>
    <path d="M276.853 257.493H267.03V267.316H276.853V257.493Z" fill="black"/>
    <path d="M286.39 257.493H276.567V267.316H286.39V257.493Z" fill="black"/>
    <path d="M295.926 257.493H286.104V267.316H295.926V257.493Z" fill="black"/>
    <path d="M305.463 257.493H295.64V267.316H305.463V257.493Z" fill="black"/>
    <path d="M315 257.493H305.177V267.316H315V257.493Z" fill="black"/>
    <path d="M86.1172 267.03H76.2943V276.853H86.1172V267.03Z" fill="black"/>
    <path d="M95.6539 267.03H85.8311V276.853H95.6539V267.03Z" fill="black"/>
    <path d="M105.191 267.03H95.3679V276.853H105.191V267.03Z" fill="black"/>
    <path d="M124.264 267.03H114.441V276.853H124.264V267.03Z" fill="black"/>
    <path d="M133.801 267.03H123.978V276.853H133.801V267.03Z" fill="black"/>
    <path d="M143.338 267.03H133.515V276.853H143.338V267.03Z" fill="black"/>
    <path d="M162.411 267.03H152.589V276.853H162.411V267.03Z" fill="black"/>
    <path d="M171.948 267.03H162.125V276.853H171.948V267.03Z" fill="black"/>
    <path d="M181.485 267.03H171.662V276.853H181.485V267.03Z" fill="black"/>
    <path d="M210.095 267.03H200.272V276.853H210.095V267.03Z" fill="black"/>
    <path d="M238.706 267.03H228.883V276.853H238.706V267.03Z" fill="black"/>
    <path d="M248.243 267.03H238.42V276.853H248.243V267.03Z" fill="black"/>
    <path d="M257.779 267.03H247.956V276.853H257.779V267.03Z" fill="black"/>
    <path d="M267.316 267.03H257.493V276.853H267.316V267.03Z" fill="black"/>
    <path d="M276.853 267.03H267.03V276.853H276.853V267.03Z" fill="black"/>
    <path d="M305.463 267.03H295.64V276.853H305.463V267.03Z" fill="black"/>
    <path d="M86.1172 276.567H76.2943V286.39H86.1172V276.567Z" fill="black"/>
    <path d="M114.728 276.567H104.905V286.39H114.728V276.567Z" fill="black"/>
    <path d="M133.801 276.567H123.978V286.39H133.801V276.567Z" fill="black"/>
    <path d="M162.411 276.567H152.589V286.39H162.411V276.567Z" fill="black"/>
    <path d="M171.948 276.567H162.125V286.39H171.948V276.567Z" fill="black"/>
    <path d="M181.485 276.567H171.662V286.39H181.485V276.567Z" fill="black"/>
    <path d="M191.022 276.567H181.199V286.39H191.022V276.567Z" fill="black"/>
    <path d="M219.632 276.567H209.809V286.39H219.632V276.567Z" fill="black"/>
    <path d="M229.169 276.567H219.346V286.39H229.169V276.567Z" fill="black"/>
    <path d="M238.706 276.567H228.883V286.39H238.706V276.567Z" fill="black"/>
    <path d="M276.853 276.567H267.03V286.39H276.853V276.567Z" fill="black"/>
    <path d="M295.926 276.567H286.104V286.39H295.926V276.567Z" fill="black"/>
    <path d="M305.463 276.567H295.64V286.39H305.463V276.567Z" fill="black"/>
    <path d="M86.1172 286.104H76.2943V295.926H86.1172V286.104Z" fill="black"/>
    <path d="M95.6539 286.104H85.8311V295.926H95.6539V286.104Z" fill="black"/>
    <path d="M114.728 286.104H104.905V295.926H114.728V286.104Z" fill="black"/>
    <path d="M152.875 286.104H143.052V295.926H152.875V286.104Z" fill="black"/>
    <path d="M162.411 286.104H152.589V295.926H162.411V286.104Z" fill="black"/>
    <path d="M171.948 286.104H162.125V295.926H171.948V286.104Z" fill="black"/>
    <path d="M181.485 286.104H171.662V295.926H181.485V286.104Z" fill="black"/>
    <path d="M191.022 286.104H181.199V295.926H191.022V286.104Z" fill="black"/>
    <path d="M238.706 286.104H228.883V295.926H238.706V286.104Z" fill="black"/>
    <path d="M248.243 286.104H238.42V295.926H248.243V286.104Z" fill="black"/>
    <path d="M257.779 286.104H247.956V295.926H257.779V286.104Z" fill="black"/>
    <path d="M286.39 286.104H276.567V295.926H286.39V286.104Z" fill="black"/>
    <path d="M295.926 286.104H286.104V295.926H295.926V286.104Z" fill="black"/>
    <path d="M105.191 295.64H95.3679V305.463H105.191V295.64Z" fill="black"/>
    <path d="M114.728 295.64H104.905V305.463H114.728V295.64Z" fill="black"/>
    <path d="M133.801 295.64H123.978V305.463H133.801V295.64Z" fill="black"/>
    <path d="M152.875 295.64H143.052V305.463H152.875V295.64Z" fill="black"/>
    <path d="M162.411 295.64H152.589V305.463H162.411V295.64Z" fill="black"/>
    <path d="M171.948 295.64H162.125V305.463H171.948V295.64Z" fill="black"/>
    <path d="M181.485 295.64H171.662V305.463H181.485V295.64Z" fill="black"/>
    <path d="M210.095 295.64H200.272V305.463H210.095V295.64Z" fill="black"/>
    <path d="M267.316 295.64H257.493V305.463H267.316V295.64Z" fill="black"/>
    <path d="M295.926 295.64H286.104V305.463H295.926V295.64Z" fill="black"/>
    <path d="M95.6539 305.177H85.8311V315H95.6539V305.177Z" fill="black"/>
    <path d="M114.728 305.177H104.905V315H114.728V305.177Z" fill="black"/>
    <path d="M124.264 305.177H114.441V315H124.264V305.177Z" fill="black"/>
    <path d="M133.801 305.177H123.978V315H133.801V305.177Z" fill="black"/>
    <path d="M152.875 305.177H143.052V315H152.875V305.177Z" fill="black"/>
    <path d="M162.411 305.177H152.589V315H162.411V305.177Z" fill="black"/>
    <path d="M171.948 305.177H162.125V315H171.948V305.177Z" fill="black"/>
    <path d="M181.485 305.177H171.662V315H181.485V305.177Z" fill="black"/>
    <path d="M191.022 305.177H181.199V315H191.022V305.177Z" fill="black"/>
    <path d="M200.559 305.177H190.736V315H200.559V305.177Z" fill="black"/>
    <path d="M229.169 305.177H219.346V315H229.169V305.177Z" fill="black"/>
    <path d="M238.706 305.177H228.883V315H238.706V305.177Z" fill="black"/>
    <path d="M248.243 305.177H238.42V315H248.243V305.177Z" fill="black"/>
    <path d="M286.39 305.177H276.567V315H286.39V305.177Z" fill="black"/>
    <path d="M295.926 305.177H286.104V315H295.926V305.177Z" fill="black"/>
    <path d="M305.463 305.177H295.64V315H305.463V305.177Z" fill="black"/>
    <path d="M0 0V66.7575H66.7575V0H0ZM57.2207 57.2207H9.53678V9.53678H57.2207V57.2207Z"
          fill="black"/>
    <path d="M247.956 0V66.7575H314.714V0H247.956ZM305.177 57.2207H257.493V9.53678H305.177V57.2207Z"
          fill="black"/>
    <path d="M0 247.956V314.714H66.7575V247.956H0ZM57.2207 305.177H9.53678V257.493H57.2207V305.177Z"
          fill="black"/>
    <path d="M47.6839 19.0736H19.0735V47.6839H47.6839V19.0736Z" fill="black"/>
    <path d="M295.64 19.0736H267.03V47.6839H295.64V19.0736Z" fill="black"/>
    <path d="M47.6839 267.03H19.0735V295.64H47.6839V267.03Z" fill="black"/>
</svg>
